<svg width="0" height="0" fill="none" style="visibility: hidden; position: absolute;" aria-hidden="true">
    <symbol id="bootstrap" xmlns="http://www.w3.org/2000/svg" viewBox="0 0 128 128">
        <defs>
            <linearGradient id="a__bootstrap" x1="76.079" x2="523.48" y1="10.798" y2="365.95" gradientTransform="translate(1.11 14.613) scale(.24566)" gradientUnits="userSpaceOnUse">
                <stop offset="0" stop-color="#9013fe"/>
                <stop offset="1" stop-color="#6610f2"/>
            </linearGradient>
            <linearGradient id="b__bootstrap" x1="193.51" x2="293.51" y1="109.74" y2="278.87" gradientTransform="translate(0 52)" gradientUnits="userSpaceOnUse">
                <stop offset="0" stop-color="#fff"/>
                <stop offset="1" stop-color="#f1e5fc"/>
            </linearGradient>
            <filter id="c__bootstrap" width="197" height="249" x="161.9" y="135.46" color-interpolation-filters="sRGB" filterUnits="userSpaceOnUse">
                <feFlood flood-opacity="0" result="BackgroundImageFix"/>
                <feColorMatrix in="SourceAlpha" values="0 0 0 0 0 0 0 0 0 0 0 0 0 0 0 0 0 0 127 0"/>
                <feOffset dy="4"/>
                <feGaussianBlur stdDeviation="8"/>
                <feColorMatrix values="0 0 0 0 0 0 0 0 0 0 0 0 0 0 0 0 0 0 0.15 0"/>
                <feBlend in2="BackgroundImageFix" result="effect1_dropShadow"/>
                <feBlend in="SourceGraphic" in2="effect1_dropShadow" result="shape"/>
            </filter>
        </defs>
        <path fill="url(#a__bootstrap)" d="M14.985 27.712c-.237-6.815 5.072-13.099 12.249-13.099h73.54c7.177 0 12.486 6.284 12.249 13.099-.228 6.546.068 15.026 2.202 21.94 2.141 6.936 5.751 11.319 11.664 11.883v6.387c-5.913.564-9.523 4.947-11.664 11.883-2.134 6.914-2.43 15.394-2.202 21.94.237 6.815-5.072 13.098-12.249 13.098h-73.54c-7.177 0-12.486-6.284-12.249-13.098.228-6.546-.068-15.026-2.203-21.94-2.14-6.935-5.76-11.319-11.673-11.883v-6.387c5.913-.563 9.533-4.947 11.673-11.883 2.135-6.914 2.43-15.394 2.203-21.94z"/>
        <path fill="url(#b__bootstrap)" d="M267.1 364.46c47.297 0 75.798-23.158 75.798-61.355 0-28.873-20.336-49.776-50.532-53.085v-1.203c22.185-3.609 39.594-24.211 39.594-47.219 0-32.783-25.882-54.138-65.322-54.138h-88.74v217zm-54.692-189.48h45.911c24.958 0 39.131 11.128 39.131 31.279 0 21.505-16.484 33.535-46.372 33.535h-38.67zm0 161.96v-71.431h45.602c32.661 0 49.608 12.03 49.608 35.49 0 23.459-16.484 35.941-47.605 35.941z" filter="url(#c__bootstrap)" transform="translate(1.494 2.203) scale(.24566)"/>
    </symbol>
    <symbol id="github-actions" xmlns="http://www.w3.org/2000/svg" viewBox="0 0 128 128">
        <path fill="#2088ff" d="M26.666 0C11.97 0 0 11.97 0 26.666c0 12.87 9.181 23.651 21.334 26.13v37.87c0 11.77 9.68 21.334 21.332 21.334h.195c1.302 9.023 9.1 16 18.473 16C71.612 128 80 119.612 80 109.334s-8.388-18.668-18.666-18.668c-9.372 0-17.17 6.977-18.473 16h-.195c-8.737 0-16-7.152-16-16V63.779a18.514 18.514 0 0 0 13.24 5.555h2.955c1.303 9.023 9.1 16 18.473 16 9.372 0 17.169-6.977 18.47-16h11.057c1.303 9.023 9.1 16 18.473 16 10.278 0 18.666-8.39 18.666-18.668C128 56.388 119.612 48 109.334 48c-9.373 0-17.171 6.977-18.473 16H79.805c-1.301-9.023-9.098-16-18.471-16s-17.171 6.977-18.473 16h-2.955c-6.433 0-11.793-4.589-12.988-10.672 14.58-.136 26.416-12.05 26.416-26.662C53.334 11.97 41.362 0 26.666 0zm0 5.334A21.292 21.292 0 0 1 48 26.666 21.294 21.294 0 0 1 26.666 48 21.292 21.292 0 0 1 5.334 26.666 21.29 21.29 0 0 1 26.666 5.334zm-5.215 7.541C18.67 12.889 16 15.123 16 18.166v17.043c0 4.043 4.709 6.663 8.145 4.533l13.634-8.455c3.257-2.02 3.274-7.002.032-9.045l-13.635-8.59a5.024 5.024 0 0 0-2.725-.777zm-.117 5.291 13.635 8.588-13.635 8.455V18.166zm40 35.168a13.29 13.29 0 0 1 13.332 13.332A13.293 13.293 0 0 1 61.334 80 13.294 13.294 0 0 1 48 66.666a13.293 13.293 0 0 1 13.334-13.332zm48 0a13.29 13.29 0 0 1 13.332 13.332A13.293 13.293 0 0 1 109.334 80 13.294 13.294 0 0 1 96 66.666a13.293 13.293 0 0 1 13.334-13.332zm-42.568 6.951a2.667 2.667 0 0 0-1.887.78l-6.3 6.294-2.093-2.084a2.667 2.667 0 0 0-3.771.006 2.667 2.667 0 0 0 .008 3.772l3.974 3.96a2.667 2.667 0 0 0 3.766-.001l8.185-8.174a2.667 2.667 0 0 0 .002-3.772 2.667 2.667 0 0 0-1.884-.78zm48 0a2.667 2.667 0 0 0-1.887.78l-6.3 6.294-2.093-2.084a2.667 2.667 0 0 0-3.771.006 2.667 2.667 0 0 0 .008 3.772l3.974 3.96a2.667 2.667 0 0 0 3.766-.001l8.185-8.174a2.667 2.667 0 0 0 .002-3.772 2.667 2.667 0 0 0-1.884-.78zM61.334 96a13.293 13.293 0 0 1 13.332 13.334 13.29 13.29 0 0 1-13.332 13.332A13.293 13.293 0 0 1 48 109.334 13.294 13.294 0 0 1 61.334 96zM56 105.334c-2.193 0-4 1.807-4 4 0 2.195 1.808 4 4 4s4-1.805 4-4c0-2.193-1.807-4-4-4zm10.666 0c-2.193 0-4 1.807-4 4 0 2.195 1.808 4 4 4s4-1.805 4-4c0-2.193-1.807-4-4-4zM56 108c.75 0 1.334.585 1.334 1.334 0 .753-.583 1.332-1.334 1.332-.75 0-1.334-.58-1.334-1.332 0-.75.585-1.334 1.334-1.334zm10.666 0c.75 0 1.334.585 1.334 1.334 0 .753-.583 1.332-1.334 1.332-.75 0-1.332-.58-1.332-1.332 0-.75.583-1.334 1.332-1.334z"/>
        <path fill="#79b8ff" d="M109.334 90.666c-9.383 0-17.188 6.993-18.477 16.031a2.667 2.667 0 0 0-.265-.011l-2.7.09a2.667 2.667 0 0 0-2.578 2.751 2.667 2.667 0 0 0 2.752 2.578l2.7-.087a2.667 2.667 0 0 0 .097-.006C92.17 121.029 99.965 128 109.334 128c10.278 0 18.666-8.388 18.666-18.666s-8.388-18.668-18.666-18.668zm0 5.334a13.293 13.293 0 0 1 13.332 13.334 13.29 13.29 0 0 1-13.332 13.332A13.293 13.293 0 0 1 96 109.334 13.294 13.294 0 0 1 109.334 96z"/>
    </symbol>
    <symbol id="github" xmlns="http://www.w3.org/2000/svg" viewBox="0 0 128 128">
        <g fill="#181616">
            <path fill-rule="evenodd" clip-rule="evenodd" d="M64 5.103c-33.347 0-60.388 27.035-60.388 60.388 0 26.682 17.303 49.317 41.297 57.303 3.017.56 4.125-1.31 4.125-2.905 0-1.44-.056-6.197-.082-11.243-16.8 3.653-20.345-7.125-20.345-7.125-2.747-6.98-6.705-8.836-6.705-8.836-5.48-3.748.413-3.67.413-3.67 6.063.425 9.257 6.223 9.257 6.223 5.386 9.23 14.127 6.562 17.573 5.02.542-3.903 2.107-6.568 3.834-8.076-13.413-1.525-27.514-6.704-27.514-29.843 0-6.593 2.36-11.98 6.223-16.21-.628-1.52-2.695-7.662.584-15.98 0 0 5.07-1.623 16.61 6.19C53.7 35 58.867 34.327 64 34.304c5.13.023 10.3.694 15.127 2.033 11.526-7.813 16.59-6.19 16.59-6.19 3.287 8.317 1.22 14.46.593 15.98 3.872 4.23 6.215 9.617 6.215 16.21 0 23.194-14.127 28.3-27.574 29.796 2.167 1.874 4.097 5.55 4.097 11.183 0 8.08-.07 14.583-.07 16.572 0 1.607 1.088 3.49 4.148 2.897 23.98-7.994 41.263-30.622 41.263-57.294C124.388 32.14 97.35 5.104 64 5.104z"/>
            <path d="M26.484 91.806c-.133.3-.605.39-1.035.185-.44-.196-.685-.605-.543-.906.13-.31.603-.395 1.04-.188.44.197.69.61.537.91zm2.446 2.729c-.287.267-.85.143-1.232-.28-.396-.42-.47-.983-.177-1.254.298-.266.844-.14 1.24.28.394.426.472.984.17 1.255zM31.312 98.012c-.37.258-.976.017-1.35-.52-.37-.538-.37-1.183.01-1.44.373-.258.97-.025 1.35.507.368.545.368 1.19-.01 1.452zm3.261 3.361c-.33.365-1.036.267-1.552-.23-.527-.487-.674-1.18-.343-1.544.336-.366 1.045-.264 1.564.23.527.486.686 1.18.333 1.543zm4.5 1.951c-.147.473-.825.688-1.51.486-.683-.207-1.13-.76-.99-1.238.14-.477.823-.7 1.512-.485.683.206 1.13.756.988 1.237zm4.943.361c.017.498-.563.91-1.28.92-.723.017-1.308-.387-1.315-.877 0-.503.568-.91 1.29-.924.717-.013 1.306.387 1.306.88zm4.598-.782c.086.485-.413.984-1.126 1.117-.7.13-1.35-.172-1.44-.653-.086-.498.422-.997 1.122-1.126.714-.123 1.354.17 1.444.663zm0 0"/>
        </g>
    </symbol>
    <symbol id="gitlab" xmlns="http://www.w3.org/2000/svg" viewBox="0 0 128 128" xml:space="preserve">
        <path fill="#E24329" d="m124.755 51.382-.177-.452L107.47 6.282a4.459 4.459 0 0 0-1.761-2.121 4.581 4.581 0 0 0-5.236.281 4.578 4.578 0 0 0-1.518 2.304L87.404 42.088H40.629L29.077 6.746a4.492 4.492 0 0 0-1.518-2.31 4.581 4.581 0 0 0-5.236-.281 4.502 4.502 0 0 0-1.761 2.121L3.422 50.904l-.17.452c-5.059 13.219-.763 28.192 10.537 36.716l.059.046.157.111 26.061 19.516 12.893 9.758 7.854 5.93a5.283 5.283 0 0 0 6.388 0l7.854-5.93 12.893-9.758 26.218-19.634.065-.052c11.273-8.526 15.562-23.472 10.524-36.677z"/>
        <path fill="#FC6D26" d="m124.755 51.382-.177-.452a57.79 57.79 0 0 0-23.005 10.341L64 89.682c12.795 9.68 23.934 18.09 23.934 18.09l26.218-19.634.065-.052c11.291-8.527 15.586-23.488 10.538-36.704z"/>
        <path fill="#FCA326" d="m40.066 107.771 12.893 9.758 7.854 5.93a5.283 5.283 0 0 0 6.388 0l7.854-5.93 12.893-9.758s-11.152-8.436-23.947-18.09a18379.202 18379.202 0 0 0-23.935 18.09z"/>
        <path fill="#FC6D26" d="M26.42 61.271A57.73 57.73 0 0 0 3.422 50.904l-.17.452c-5.059 13.219-.763 28.192 10.537 36.716l.059.046.157.111 26.061 19.516L64 89.655 26.42 61.271z"/>
    </symbol>
    <symbol id="google" xmlns="http://www.w3.org/2000/svg" viewBox="0 0 128 128">
        <path fill="#fff" d="M44.59 4.21a63.28 63.28 0 004.33 120.9 67.6 67.6 0 0032.36.35 57.13 57.13 0 0025.9-13.46 57.44 57.44 0 0016-26.26 74.33 74.33 0 001.61-33.58H65.27v24.69h34.47a29.72 29.72 0 01-12.66 19.52 36.16 36.16 0 01-13.93 5.5 41.29 41.29 0 01-15.1 0A37.16 37.16 0 0144 95.74a39.3 39.3 0 01-14.5-19.42 38.31 38.31 0 010-24.63 39.25 39.25 0 019.18-14.91A37.17 37.17 0 0176.13 27a34.28 34.28 0 0113.64 8q5.83-5.8 11.64-11.63c2-2.09 4.18-4.08 6.15-6.22A61.22 61.22 0 0087.2 4.59a64 64 0 00-42.61-.38z"/>
        <path fill="#e33629" d="M44.59 4.21a64 64 0 0142.61.37 61.22 61.22 0 0120.35 12.62c-2 2.14-4.11 4.14-6.15 6.22Q95.58 29.23 89.77 35a34.28 34.28 0 00-13.64-8 37.17 37.17 0 00-37.46 9.74 39.25 39.25 0 00-9.18 14.91L8.76 35.6A63.53 63.53 0 0144.59 4.21z"/>
        <path fill="#f8bd00" d="M3.26 51.5a62.93 62.93 0 015.5-15.9l20.73 16.09a38.31 38.31 0 000 24.63q-10.36 8-20.73 16.08a63.33 63.33 0 01-5.5-40.9z"/>
        <path fill="#587dbd" d="M65.27 52.15h59.52a74.33 74.33 0 01-1.61 33.58 57.44 57.44 0 01-16 26.26c-6.69-5.22-13.41-10.4-20.1-15.62a29.72 29.72 0 0012.66-19.54H65.27c-.01-8.22 0-16.45 0-24.68z"/>
        <path fill="#319f43" d="M8.75 92.4q10.37-8 20.73-16.08A39.3 39.3 0 0044 95.74a37.16 37.16 0 0014.08 6.08 41.29 41.29 0 0015.1 0 36.16 36.16 0 0013.93-5.5c6.69 5.22 13.41 10.4 20.1 15.62a57.13 57.13 0 01-25.9 13.47 67.6 67.6 0 01-32.36-.35 63 63 0 01-23-11.59A63.73 63.73 0 018.75 92.4z"/>
    </symbol>
    <symbol id="gulp.js" xmlns="http://www.w3.org/2000/svg" viewBox="0 0 128 128">
        <path fill-rule="evenodd" clip-rule="evenodd" fill="#EB4A4B" d="M36.965 35.459c.877 9.232 1.747 18.412 2.637 27.798 1.451-2.495 2.501-4.888 4.085-6.848 1.475-1.826 3.334-3.511 5.357-4.678 2.641-1.524 6.104-.089 6.96 2.614.23.725-.319 1.697-.511 2.556-.646-.341-1.479-.529-1.901-1.051-1.793-2.217-2.873-2.479-4.856-.563-3.699 3.576-5.779 8.056-6.573 13.091-.153.974.456 2.067.713 3.105 1.011-.348 2.185-.476 3.002-1.084 2.656-1.977 4.302-4.666 5.21-7.88.197-.696 1.265-1.145 1.933-1.708.32.658 1.05 1.433.897 1.954a373.814 373.814 0 01-4.536 14.429c-.162.484-1.051.725-1.604 1.079-.223-.636-.692-1.302-.617-1.901.168-1.358.605-2.683.91-3.927l-7.24 3.333c.405 4.622.825 9.807 1.323 14.985.382 3.954 1.029 4.978 4.923 5.728 4.544.875 9.173 1.434 13.792 1.774a60.391 60.391 0 0020.23-1.904c2.472-.664 3.458-2.29 3.635-4.717.162-2.235.524-4.456.775-6.685.493-4.391.972-8.783 1.476-13.358-1.667 1.056-2.978 2.238-4.511 2.739-1.116.365-2.524-.169-3.803-.303.245-1.174.23-2.497.796-3.487.922-1.618 2.224-3.021 3.364-4.515l-.491-.591c-.817.483-1.832.8-2.413 1.485-1.182 1.394-2.339 2.886-3.13 4.52-1.324 2.735-2.333 5.622-3.518 8.426-.515 1.216-.959 3.076-2.684 2.366-1.845-.761-.547-2.386-.114-3.542.689-1.844 1.599-3.606 2.215-4.962-1.746.208-3.516.459-5.294.614-.752.064-1.646-.348-2.261-.07-2.045.924-3.341.553-3.766-1.711-.947.615-1.749 1.448-2.694 1.672-1.147.273-2.703.452-3.543-.121-.673-.459-.918-2.184-.688-3.196.457-2.012 1.311-3.946 2.122-5.859.502-1.185 1.007-3.077 2.701-2.253 1.674.813.154 2.185-.232 3.286-.599 1.702-1.209 3.401-1.813 5.101l.96.58c.914-.794 2.053-1.441 2.693-2.415 1.048-1.592 1.681-3.452 2.673-5.086.411-.677 1.296-1.065 1.967-1.584.136.862.462 1.748.354 2.58-.107.841-.698 1.61-.981 2.442-.425 1.246-.768 2.52-1.2 3.969 2.043.078 2.918-.782 3.495-2.299 1.826-4.793 3.672-9.581 5.679-14.3.343-.808 1.509-1.264 2.296-1.884.091.974.525 2.078.216 2.899-1.645 4.349-3.492 8.62-5.228 12.935-.293.727-.387 1.534-.572 2.304 3.059-1.375 5.612-2.895 6.544-6.146.228-.79 1.162-1.377 1.771-2.058l1.416 1.5c.43-.362.824-.774 1.291-1.075 1.47-.947 3.053-1.782 4.603-.315 1.604 1.517.39 2.995-.448 4.307-.912 1.431-2.029 2.73-3.057 4.086 2.312-1.49 5.469-2.158 5.889-5.378 1.024-7.865 1.924-15.746 2.837-23.625.271-2.332.416-4.679.627-7.109-18.21 4.409-36.029 4.436-54.088-.069zm7.816 61.369c.877 2.317 2.209 4.593 2.558 7.011.737 5.147.924 10.372 1.446 15.554.076.755.565 1.792 1.175 2.124 8.98 4.88 18.047 5.726 27.209.389 1.367-.796 1.62-1.847 1.797-3.325.857-7.181-1.051-14.798 3.54-21.56-12.856 3.189-25.403 3.288-37.725-.193zm30.991-60.08c4.362-.421 8.671-1.445 12.985-2.291.813-.159 1.535-.778 2.299-1.185-1.007-.885-1.878-1.311-2.788-1.418-4.53-.535-9.076-.947-13.603-1.508-.684-.085-1.905-.929-1.854-1.083 1.321-3.98 1.256-8.485 4.254-11.839 3.789-4.24 7.617-8.443 11.416-12.648-2.826-3.04-2.864-3.044-5.425-.383-1.448 1.504-2.771 3.15-4.342 4.512-5.813 5.038-9.896 11.005-10.692 18.872-.183 1.805-1.174 2.457-3.069 2.485-6.256.091-12.519.263-18.761.674-3.093.203-6.148.997-9.221 1.523l-.028 1.149c1.923.593 3.809 1.372 5.773 1.749 10.944 2.098 21.991 2.458 33.056 1.391zM72.276 34c-2.477 2-4.524 2-6.501 0h6.501z"/>
    </symbol>
    <symbol id="handlebars" xmlns="http://www.w3.org/2000/svg" viewBox="0 0 128 128">
        <path d="M14.59 62.67a7.14 7.14 0 002.31-3.48c.46-2 .36-3.94-2.31-5.3C7.82 50.47 3.45 56.57 2.77 58s-1.74 3.68-1 8.84 3.19 9.9 11 11.73a32.89 32.89 0 0022-2.57c6.84-3.26 19.7-9 22.94-9.58a28.15 28.15 0 016.49-.81v-7.85a18 18 0 00-17.38-9.15C34.43 49.59 29.51 56 26.49 58.7s-8.61 9.17-12.37 8-4.81-5.7-3.48-7.14 2.37-1.18 3.18 0a6.24 6.24 0 01.77 3.11z"/>
        <path d="M113.41 62.67a7.14 7.14 0 01-2.31-3.48c-.46-2-.36-3.94 2.31-5.3 6.76-3.43 11.13 2.67 11.81 4.11s1.74 3.68 1 8.84-3.19 9.9-11 11.73A32.89 32.89 0 0193.23 76c-6.84-3.26-19.7-9-22.94-9.58a28.15 28.15 0 00-6.49-.81v-7.85a18 18 0 0117.38-9.15c12.39 1 17.32 7.38 20.34 10.08s8.61 9.17 12.37 8 4.81-5.76 3.48-7.19-2.37-1.18-3.18 0a6.24 6.24 0 00-.78 3.17z"/>
    </symbol>
    <symbol id="intellij-idea" xmlns="http://www.w3.org/2000/svg" viewBox="0 0 128 128">
        <defs>
            <linearGradient id="a__intellij-idea" gradientUnits="userSpaceOnUse" x1="11.16" y1="59.21" x2="58.94" y2="56.78" gradientTransform="rotate(.104) scale(1.21905)">
                <stop offset=".09" stop-color="#fc801d"/>
                <stop offset=".23" stop-color="#b07f61"/>
                <stop offset=".41" stop-color="#577db3"/>
                <stop offset=".53" stop-color="#1e7ce6"/>
                <stop offset=".59" stop-color="#087cfa"/>
            </linearGradient>
            <linearGradient id="b__intellij-idea" gradientUnits="userSpaceOnUse" x1="89.05" y1="54.12" x2="73.12" y2="6.52" gradientTransform="rotate(.104) scale(1.21905)">
                <stop offset="0" stop-color="#fe2857"/>
                <stop offset=".08" stop-color="#cb3979"/>
                <stop offset=".16" stop-color="#9e4997"/>
                <stop offset=".25" stop-color="#7557b2"/>
                <stop offset=".34" stop-color="#5362c8"/>
                <stop offset=".44" stop-color="#386cda"/>
                <stop offset=".54" stop-color="#2373e8"/>
                <stop offset=".66" stop-color="#1478f2"/>
                <stop offset=".79" stop-color="#0b7bf8"/>
                <stop offset="1" stop-color="#087cfa"/>
            </linearGradient>
            <linearGradient id="c__intellij-idea" gradientUnits="userSpaceOnUse" x1="18.72" y1="26.61" x2="78.8" y2="125.99" gradientTransform="rotate(.104) scale(1.21905)">
                <stop offset="0" stop-color="#fe2857"/>
                <stop offset=".08" stop-color="#fe295f"/>
                <stop offset=".21" stop-color="#ff2d76"/>
                <stop offset=".3" stop-color="#ff318c"/>
                <stop offset=".38" stop-color="#ea3896"/>
                <stop offset=".55" stop-color="#b248ae"/>
                <stop offset=".79" stop-color="#5a63d6"/>
                <stop offset="1" stop-color="#087cfa"/>
            </linearGradient>
        </defs>
        <path fill="url(#a__intellij-idea)" d="M23.492 88.027 6.277 74.434 16.41 55.676l15.223 5.094Zm0 0"/>
        <path fill="#087cfa" d="m121.988 36.68-2.105 67.78L74.8 122.517l-24.55-15.849Zm0 0"/>
        <path fill="url(#b__intellij-idea)" d="M121.988 36.68 99.68 58.44 71.035 23.297l14.14-15.899Zm0 0"/>
        <path fill="url(#c__intellij-idea)" d="m50.25 106.668-35.852 12.957 7.508-26.293 9.727-32.562L4.96 51.848 21.906 5.484l38.301 4.524L99.68 58.44Zm0 0"/>
        <path fill="#000" d="M27.43 27.43h73.14v73.14H27.43Zm0 0"/>
        <path fill="#fff" d="M36.547 86.746h27.43v4.574h-27.43Zm13.691-45.152v-4.996h-13.64v4.996h3.824v17.261h-3.824v5h13.64v-5h-3.816V41.594Zm13.078 22.648a10.802 10.802 0 0 1-5.351-1.219 12.299 12.299 0 0 1-3.559-2.875l3.766-4.207c.687.778 1.484 1.45 2.367 2a4.849 4.849 0 0 0 2.621.73 3.46 3.46 0 0 0 2.668-1.058 5.07 5.07 0 0 0 .977-3.449V36.57h6.093v17.86a12.384 12.384 0 0 1-.668 4.254 7.919 7.919 0 0 1-4.964 4.879 12.097 12.097 0 0 1-4.036.632"/>
    </symbol>
    <symbol id="jest" xmlns="http://www.w3.org/2000/svg" viewBox="0 0 128 128">
        <path fill="#99425B" d="M124.129 63.02c0-7.692-5.828-14.165-13.652-16.012L128 .113H41.16l17.563 47.043c-7.578 1.996-13.164 8.356-13.164 15.903 0 5.546 3.058 10.464 7.703 13.496-1.832 2.367-3.953 4.55-6.356 6.62-4.523 3.848-9.539 6.805-14.957 8.766-4.89-2.996-7.008-8.285-5.094-13.02 7.457-2.07 12.88-8.394 12.88-15.827 0-9.133-8.192-16.532-18.22-16.532-10.066 0-18.253 7.434-18.253 16.57 0 4.513 2.035 8.653 5.297 11.61-.286.52-.57 1.035-.856 1.59C4.973 81.438 1.875 87.207.691 93.68c-2.363 12.941 1.508 23.336 10.84 29.215 5.258 3.293 11.047 4.957 17.282 4.957 10.714 0 21.597-4.883 32.109-9.618 7.5-3.363 15.242-6.879 22.863-8.578 2.813-.629 5.746-1 8.844-1.406 6.273-.813 12.754-1.664 18.582-4.734 6.805-3.586 11.45-9.579 12.797-16.457 1.015-5.29 0-10.614-2.61-15.274a15.35 15.35 0 002.73-8.765zm-7.945 0c0 5.14-4.606 9.32-10.27 9.32s-10.27-4.18-10.27-9.32c0-1.665.489-3.254 1.344-4.622.325-.52.735-1.035 1.14-1.48a8.517 8.517 0 011.427-1.219l.043-.039c.324-.222.691-.445 1.058-.664 0 0 .04 0 .04-.039.163-.074.327-.184.492-.258.039 0 .078-.039.12-.039.165-.07.368-.144.57-.219a8.78 8.78 0 00.571-.222c.04 0 .082-.04.121-.04.164-.034.328-.109.489-.144.043 0 .125-.039.164-.039.203-.035.367-.074.57-.11h.043l.61-.113c.042 0 .12 0 .163-.035.164 0 .325-.039.489-.039h.203c.203 0 .41-.035.652-.035h.531c.16 0 .286 0 .446.035h.082c.328.04.652.074.98.149 4.645.886 8.192 4.66 8.192 9.172zM52.527 7.508h64.102l-14.711 39.387c-.61.113-1.223.296-1.832.48l-15.484-28.66L69.074 47.19c-.613-.183-1.265-.296-1.914-.406zM81.664 59.8c-.773-3.477-2.73-6.582-5.5-8.875l8.438-15.457 8.515 15.789c-2.527 2.293-4.36 5.215-5.094 8.543zM61.25 53.96c.203-.04.367-.074.57-.113h.121c.164-.035.329-.035.489-.075h.164c.164 0 .285-.035.449-.035h1.59c.16 0 .285.035.406.035.082 0 .121 0 .203.04.164.035.285.035.45.074.038 0 .081 0 .163.035.204.039.407.074.57.113h.04c.164.035.328.07.488.145.043 0 .082.039.164.039.121.035.285.074.406.148.043 0 .082.035.125.035.16.075.325.114.489.188h.039c.203.07.367.144.531.258h.04c.163.074.327.183.491.257.04 0 .04.04.078.04.164.07.286.183.45.257l.043.035c.488.333.937.704 1.382 1.075l.043.035c.407.406.813.851 1.141 1.332 1.059 1.48 1.672 3.219 1.672 5.105 0 5.141-4.606 9.317-10.27 9.317s-10.27-4.176-10.27-9.317c-.042-4.328 3.259-7.988 7.743-9.023zm-40.102-.262c5.665 0 10.27 4.18 10.27 9.32 0 5.141-4.605 9.32-10.27 9.32-5.664 0-10.27-4.179-10.27-9.32 0-5.14 4.606-9.32 10.27-9.32zm94.79 32.067c-.895 4.73-4.118 8.875-8.844 11.351-4.442 2.332-9.903 3.07-15.649 3.809-3.136.406-6.437.851-9.617 1.554-8.476 1.887-16.625 5.586-24.531 9.133-10.106 4.551-19.645 8.84-28.484 8.84-4.606 0-8.723-1.183-12.633-3.66-8.965-5.621-8.52-16.16-7.457-21.93.976-5.402 3.707-10.468 6.316-15.312.16-.297.285-.555.445-.852.899.297 1.836.52 2.813.668-1.547 7.84 2.851 15.938 11.41 19.934l1.55.738 1.669-.555c7.133-2.293 13.734-6.027 19.562-11.02 3.301-2.812 6.114-5.843 8.477-9.136.937.149 1.875.188 2.812.188 8.477 0 15.606-5.29 17.645-12.391h6.844c2.039 7.137 9.171 12.39 17.648 12.39 3.383 0 6.52-.85 9.207-2.292 1.063 2.773 1.387 5.656.817 8.543zm0 0"/>
    </symbol>
    <symbol id="jquery" xmlns="http://www.w3.org/2000/svg" viewBox="0 0 128 128">
        <path fill="#0868AC" d="M9.625 32.181C-1.404 48.032-.031 68.657 8.394 85.501c.2.404.41.801.617 1.198l.394.759.246.437.439.786c.262.461.53.92.804 1.379l.459.756c.304.491.615.976.933 1.46l.398.614c.439.655.888 1.309 1.352 1.951l.039.05.228.308c.401.553.814 1.099 1.232 1.639l.464.59c.373.469.752.935 1.138 1.399l.435.52a75.27 75.27 0 001.586 1.812l.033.033.061.068a80.44 80.44 0 001.612 1.699l.517.521c.423.426.853.845 1.287 1.262l.527.5c.58.547 1.166 1.083 1.764 1.607l.028.022.307.262c.527.456 1.063.909 1.603 1.353l.664.529c.441.354.887.702 1.336 1.044l.714.543c.496.365.995.724 1.499 1.075l.546.387.15.107c.478.329.967.646 1.456.963l.63.42c.75.474 1.51.943 2.279 1.396l.63.355c.565.326 1.134.646 1.71.959.312.168.632.327.946.488.407.213.811.429 1.225.636l.283.137.501.242c.641.306 1.287.607 1.94.897l.41.184a66.92 66.92 0 002.263.941l.551.217c.704.271 1.418.539 2.135.791l.268.093c.787.275 1.581.53 2.381.779l.575.172c.814.245 1.619.538 2.458.693 53.339 9.727 68.833-32.053 68.833-32.053-13.013 16.953-36.111 21.425-57.996 16.446-.829-.187-1.633-.446-2.442-.685l-.609-.185a72.498 72.498 0 01-2.352-.765l-.323-.117a72.245 72.245 0 01-2.074-.769l-.582-.229c-.752-.297-1.5-.607-2.239-.931l-.447-.198a92.857 92.857 0 01-1.889-.879l-.546-.262c-.491-.239-.977-.493-1.461-.743-.324-.171-.654-.332-.975-.51a58.591 58.591 0 01-1.751-.982l-.591-.33a81.221 81.221 0 01-2.28-1.397l-.615-.41a59.283 59.283 0 01-1.623-1.079l-.522-.367a89.287 89.287 0 01-1.534-1.109l-.679-.514a64.473 64.473 0 01-1.384-1.082l-.617-.495a82.693 82.693 0 01-1.724-1.453l-.189-.159a83.466 83.466 0 01-1.812-1.647l-.511-.491c-.441-.42-.875-.843-1.302-1.277l-.51-.509a70.541 70.541 0 01-1.598-1.69l-.079-.084a67.39 67.39 0 01-1.621-1.844l-.424-.504a70.602 70.602 0 01-1.167-1.442l-.427-.532a78.406 78.406 0 01-1.347-1.794c-12.15-16.574-16.516-39.432-6.805-58.204m25.629-2.434c-7.977 11.478-7.543 26.844-1.321 38.983a50.581 50.581 0 003.528 5.889c1.195 1.713 2.52 3.751 4.106 5.127a48.111 48.111 0 001.79 1.858l.472.465a51.69 51.69 0 001.828 1.698l.074.064.018.018a55.268 55.268 0 002.135 1.767l.485.378a54.08 54.08 0 002.233 1.631l.065.049c.336.232.678.448 1.019.672l.483.319c.544.349 1.095.689 1.655 1.015l.235.136c.483.278.972.552 1.463.818l.521.271c.339.177.678.358 1.023.53l.155.07c.703.346 1.412.68 2.136.995l.472.194c.579.246 1.164.486 1.75.71l.75.275c.533.198 1.068.378 1.607.559l.727.233c.767.238 1.525.539 2.324.672 41.183 6.823 50.691-24.886 50.691-24.886-8.57 12.343-25.168 18.233-42.879 13.635a50.376 50.376 0 01-2.333-.674l-.701-.227a45.423 45.423 0 01-1.631-.562l-.736-.274a56.418 56.418 0 01-1.756-.708l-.473-.2a47.728 47.728 0 01-2.148-.999c-.363-.177-.72-.364-1.078-.548l-.622-.32a44.502 44.502 0 01-1.363-.77l-.326-.185a47.844 47.844 0 01-1.651-1.008l-.498-.332a61.759 61.759 0 01-1.069-.707 57.456 57.456 0 01-2.226-1.628l-.501-.395c-7.752-6.12-13.898-14.486-16.819-23.971-3.062-9.836-2.402-20.878 2.903-29.84m22.278-.775c-4.702 6.92-5.164 15.514-1.901 23.156 3.441 8.113 10.491 14.476 18.72 17.495.339.125.679.237 1.022.354l.451.143c.485.152.966.329 1.467.424 22.74 4.394 28.908-11.669 30.549-14.034-5.402 7.779-14.482 9.646-25.623 6.942-.88-.213-1.847-.531-2.695-.832a33.242 33.242 0 01-3.201-1.329 33.215 33.215 0 01-5.612-3.424c-9.969-7.565-16.162-21.994-9.657-33.745"/>
    </symbol>
    <symbol id="markdown" xmlns="http://www.w3.org/2000/svg" viewBox="0 0 128 128">
        <path style="line-height:normal;font-variant-ligatures:normal;font-variant-position:normal;font-variant-caps:normal;font-variant-numeric:normal;font-variant-alternates:normal;font-variant-east-asian:normal;font-feature-settings:normal;font-variation-settings:normal;text-indent:0;text-align:start;text-decoration-line:none;text-decoration-style:solid;text-decoration-color:#000;text-transform:none;text-orientation:mixed;white-space:normal;shape-padding:0;shape-margin:0;inline-size:0;isolation:auto;mix-blend-mode:normal;solid-color:#000;solid-opacity:1" d="M11.95 24.348c-5.836 0-10.618 4.867-10.618 10.681v57.942c0 5.814 4.782 10.681 10.617 10.681h104.102c5.835 0 10.617-4.867 10.617-10.681V35.03c0-5.814-4.783-10.681-10.617-10.681H14.898l-.002-.002H11.95zm-.007 9.543h104.108c.625 0 1.076.423 1.076 1.14v57.94c0 .717-.453 1.14-1.076 1.14H11.949c-.623 0-1.076-.423-1.076-1.14V35.029c0-.715.451-1.135 1.07-1.138z" color="#000" font-weight="400" font-family="sans-serif" overflow="visible"/>
        <path d="M20.721 84.1V43.9H32.42l11.697 14.78L55.81 43.9h11.696v40.2H55.81V61.044l-11.694 14.78-11.698-14.78V84.1H20.722zm73.104 0L76.28 64.591h11.697V43.9h11.698v20.69h11.698zm0 0"/>
    </symbol>
    <symbol id="next.js" xmlns="http://www.w3.org/2000/svg" viewBox="0 0 128 128">
        <path d="M64 0C28.7 0 0 28.7 0 64s28.7 64 64 64c11.2 0 21.7-2.9 30.8-7.9L48.4 55.3v36.6h-6.8V41.8h6.8l50.5 75.8C116.4 106.2 128 86.5 128 64c0-35.3-28.7-64-64-64zm22.1 84.6l-7.5-11.3V41.8h7.5v42.8z"/>
    </symbol>
    <symbol id="node" xmlns="http://www.w3.org/2000/svg" viewBox="0 0 128 128">
        <path fill="#83CD29" d="M112.771 30.334L68.674 4.729c-2.781-1.584-6.402-1.584-9.205 0L14.901 30.334C12.031 31.985 10 35.088 10 38.407v51.142c0 3.319 2.084 6.423 4.954 8.083l11.775 6.688c5.628 2.772 7.617 2.772 10.178 2.772 8.333 0 13.093-5.039 13.093-13.828v-50.49c0-.713-.371-1.774-1.071-1.774h-5.623C42.594 41 41 42.061 41 42.773v50.49c0 3.896-3.524 7.773-10.11 4.48L18.723 90.73c-.424-.23-.723-.693-.723-1.181V38.407c0-.482.555-.966.982-1.213l44.424-25.561c.415-.235 1.025-.235 1.439 0l43.882 25.555c.42.253.272.722.272 1.219v51.142c0 .488.183.963-.232 1.198l-44.086 25.576c-.378.227-.847.227-1.261 0l-11.307-6.749c-.341-.198-.746-.269-1.073-.086-3.146 1.783-3.726 2.02-6.677 3.043-.726.253-1.797.692.41 1.929l14.798 8.754a9.294 9.294 0 004.647 1.246c1.642 0 3.25-.426 4.667-1.246l43.885-25.582c2.87-1.672 4.23-4.764 4.23-8.083V38.407c0-3.319-1.36-6.414-4.229-8.073zM77.91 81.445c-11.726 0-14.309-3.235-15.17-9.066-.1-.628-.633-1.379-1.272-1.379h-5.731c-.709 0-1.279.86-1.279 1.566 0 7.466 4.059 16.512 23.453 16.512 14.039 0 22.088-5.455 22.088-15.109 0-9.572-6.467-12.084-20.082-13.886-13.762-1.819-15.16-2.738-15.16-5.962 0-2.658 1.184-6.203 11.374-6.203 9.105 0 12.461 1.954 13.842 8.091.118.577.645.991 1.24.991h5.754c.354 0 .692-.143.94-.396.24-.272.367-.613.335-.979-.891-10.568-7.912-15.493-22.112-15.493-12.631 0-20.166 5.334-20.166 14.275 0 9.698 7.497 12.378 19.622 13.577 14.505 1.422 15.633 3.542 15.633 6.395 0 4.955-3.978 7.066-13.309 7.066z"/>
    </symbol>
    <symbol id="npm" xmlns="http://www.w3.org/2000/svg" viewBox="0 0 128 128">
        <path fill="#cb3837" d="M2 38.5h124v43.71H64v7.29H36.44v-7.29H2zm6.89 36.43h13.78V53.07h6.89v21.86h6.89V45.79H8.89zm34.44-29.14v36.42h13.78v-7.28h13.78V45.79zm13.78 7.29H64v14.56h-6.89zm20.67-7.29v29.14h13.78V53.07h6.89v21.86h6.89V53.07h6.89v21.86h6.89V45.79z"/>
    </symbol>
    <symbol id="playwrite" viewBox="0 0 128 128" xmlns="http://www.w3.org/2000/svg">
        <path d="M43.662 70.898c-4.124 1.17-6.829 3.222-8.611 5.272 1.707-1.494 3.993-2.865 7.077-3.739 3.155-.894 5.846-.888 8.069-.459v-1.739c-1.897-.173-4.072-.035-6.536.664ZM34.863 56.28l-15.314 4.035s.279.394.796.92l12.984-3.421s-.184 2.371-1.782 4.492c3.022-2.287 3.316-6.025 3.316-6.025Zm12.819 35.991C26.131 98.076 14.729 73.1 11.277 60.137 9.682 54.153 8.986 49.621 8.8 46.697a4.955 4.955 0 0 1 .011-.794c-1.118.068-1.653.649-1.544 2.328.186 2.923.882 7.454 2.477 13.44 3.45 12.961 14.854 37.937 36.405 32.132 4.691-1.264 8.215-3.565 10.86-6.504-2.438 2.202-5.49 3.937-9.327 4.972Zm4.05-51.276v1.534h8.453c-.173-.543-.348-1.032-.522-1.534h-7.932Z" fill="#2D4552"/>
        <path d="M62.074 53.627c3.802 1.08 5.812 3.745 6.875 6.104l4.239 1.204s-.578-8.255-8.045-10.376c-6.985-1.985-11.284 3.881-11.807 4.64 2.032-1.448 4.999-2.633 8.738-1.572Zm33.741 6.142c-6.992-1.994-11.289 3.884-11.804 4.633 2.034-1.446 4.999-2.632 8.737-1.566 3.796 1.081 5.804 3.743 6.87 6.104l4.245 1.208s-.588-8.257-8.048-10.379Zm-4.211 21.766-35.261-9.858s.382 1.935 1.846 4.441l29.688 8.3c2.444-1.414 3.726-2.883 3.726-2.883Zm-24.446 21.218c-27.92-7.485-24.544-43.059-20.027-59.916 1.86-6.947 3.772-12.11 5.358-15.572-.946-.195-1.73.304-2.504 1.878-1.684 3.415-3.837 8.976-5.921 16.76-4.516 16.857-7.892 52.429 20.027 59.914 13.159 3.525 23.411-1.833 31.053-10.247-7.254 6.57-16.515 10.253-27.986 7.182Z" fill="#2D4552"/>
        <path d="M51.732 83.935v-7.179l-19.945 5.656s1.474-8.563 11.876-11.514c3.155-.894 5.846-.888 8.069-.459V40.995h9.987c-1.087-3.36-2.139-5.947-3.023-7.744-1.461-2.975-2.96-1.003-6.361 1.842-2.396 2.001-8.45 6.271-17.561 8.726-9.111 2.457-16.476 1.805-19.55 1.273-4.357-.752-6.636-1.708-6.422 1.605.186 2.923.882 7.455 2.477 13.44 3.45 12.962 14.854 37.937 36.405 32.132 5.629-1.517 9.603-4.515 12.357-8.336h-8.309v.002Zm-32.185-23.62 15.316-4.035s-.446 5.892-6.188 7.405c-5.743 1.512-9.128-3.371-9.128-3.371Z" fill="#E2574C"/>
        <path d="M109.372 41.336c-3.981.698-13.532 1.567-25.336-1.596-11.807-3.162-19.64-8.692-22.744-11.292-4.4-3.685-6.335-6.246-8.24-2.372-1.684 3.417-3.837 8.977-5.921 16.762-4.516 16.857-7.892 52.429 20.027 59.914 27.912 7.479 42.772-25.017 47.289-41.875 2.084-7.783 2.998-13.676 3.25-17.476.287-4.305-2.67-3.055-8.324-2.064ZM53.28 55.282s4.4-6.843 11.862-4.722c7.467 2.121 8.045 10.376 8.045 10.376L53.28 55.282Zm18.215 30.706c-13.125-3.845-15.15-14.311-15.15-14.311l35.259 9.858c0-.002-7.117 8.25-20.109 4.453Zm12.466-21.51s4.394-6.838 11.854-4.711c7.46 2.124 8.048 10.379 8.048 10.379l-19.902-5.668Z" fill="#2EAD33"/>
        <path d="M44.762 78.733 31.787 82.41s1.41-8.029 10.968-11.212l-7.347-27.573-.635.193c-9.111 2.457-16.476 1.805-19.55 1.273-4.357-.751-6.636-1.708-6.422 1.606.186 2.923.882 7.454 2.477 13.44 3.45 12.961 14.854 37.937 36.405 32.132l.635-.199-3.555-13.337ZM19.548 60.315l15.316-4.035s-.446 5.892-6.188 7.405c-5.743 1.512-9.128-3.371-9.128-3.371Z" fill="#D65348"/>
        <path d="m72.086 86.132-.594-.144c-13.125-3.844-15.15-14.311-15.15-14.311l18.182 5.082L84.15 39.77l-.116-.031c-11.807-3.162-19.64-8.692-22.744-11.292-4.4-3.685-6.335-6.246-8.24-2.372-1.682 3.417-3.836 8.977-5.92 16.762-4.516 16.857-7.892 52.429 20.027 59.914l.572.129 4.357-16.748Zm-18.807-30.85s4.4-6.843 11.862-4.722c7.467 2.121 8.045 10.376 8.045 10.376l-19.907-5.654Z" fill="#1D8D22"/>
        <path d="m45.423 78.544-3.48.988c.822 4.634 2.271 9.082 4.545 13.011.396-.087.788-.163 1.192-.273a25.224 25.224 0 0 0 2.98-1.023c-2.541-3.771-4.222-8.114-5.237-12.702Zm-1.359-32.64c-1.788 6.674-3.388 16.28-2.948 25.915a20.061 20.061 0 0 1 2.546-.923l.644-.144c-.785-10.292.912-20.78 2.825-27.915a139.404 139.404 0 0 1 1.455-5.05 45.171 45.171 0 0 1-2.578 1.53 132.234 132.234 0 0 0-1.944 6.587Z" fill="#C04B41"/>
    </symbol>
    <symbol id="powershell" xmlns="http://www.w3.org/2000/svg" xml:space="preserve" viewBox="0 0 128 128">
        <linearGradient id="a__powershell" x1="96.306" x2="25.454" y1="35.144" y2="98.431" gradientTransform="matrix(1 0 0 -1 0 128)" gradientUnits="userSpaceOnUse">
            <stop offset="0" stop-color="#a9c8ff"/>
            <stop offset="1" stop-color="#c7e6ff"/>
        </linearGradient>
        <path fill="url(#a__powershell)" fill-rule="evenodd" d="M7.2 110.5c-1.7 0-3.1-.7-4.1-1.9-1-1.2-1.3-2.9-.9-4.6l18.6-80.5c.8-3.4 4-6 7.4-6h92.6c1.7 0 3.1.7 4.1 1.9 1 1.2 1.3 2.9.9 4.6l-18.6 80.5c-.8 3.4-4 6-7.4 6H7.2z" clip-rule="evenodd" opacity=".8"/>
        <linearGradient id="b__powershell" x1="25.336" x2="94.569" y1="98.33" y2="36.847" gradientTransform="matrix(1 0 0 -1 0 128)" gradientUnits="userSpaceOnUse">
            <stop offset="0" stop-color="#2d4664"/>
            <stop offset=".169" stop-color="#29405b"/>
            <stop offset=".445" stop-color="#1e2f43"/>
            <stop offset=".79" stop-color="#0c131b"/>
            <stop offset="1"/>
        </linearGradient>
        <path fill="url(#b__powershell)" fill-rule="evenodd" d="M120.3 18.5H28.5c-2.9 0-5.7 2.3-6.4 5.2L3.7 104.3c-.7 2.9 1.1 5.2 4 5.2h91.8c2.9 0 5.7-2.3 6.4-5.2l18.4-80.5c.7-2.9-1.1-5.3-4-5.3z" clip-rule="evenodd"/>
        <path fill="#2C5591" fill-rule="evenodd" d="M64.2 88.3h22.3c2.6 0 4.7 2.2 4.7 4.9s-2.1 4.9-4.7 4.9H64.2c-2.6 0-4.7-2.2-4.7-4.9s2.1-4.9 4.7-4.9zM78.7 66.5c-.4.8-1.2 1.6-2.6 2.6L34.6 98.9c-2.3 1.6-5.5 1-7.3-1.4-1.7-2.4-1.3-5.7.9-7.3l37.4-27.1v-.6l-23.5-25c-1.9-2-1.7-5.3.4-7.4 2.2-2 5.5-2 7.4 0l28.2 30c1.7 1.9 1.8 4.5.6 6.4z" clip-rule="evenodd"/>
        <path fill="#FFF" fill-rule="evenodd" d="M77.6 65.5c-.4.8-1.2 1.6-2.6 2.6L33.6 97.9c-2.3 1.6-5.5 1-7.3-1.4-1.7-2.4-1.3-5.7.9-7.3l37.4-27.1v-.6l-23.5-25c-1.9-2-1.7-5.3.4-7.4 2.2-2 5.5-2 7.4 0l28.2 30c1.7 1.8 1.8 4.4.5 6.4zM63.5 87.8h22.3c2.6 0 4.7 2.1 4.7 4.6 0 2.6-2.1 4.6-4.7 4.6H63.5c-2.6 0-4.7-2.1-4.7-4.6 0-2.6 2.1-4.6 4.7-4.6z" clip-rule="evenodd"/>
    </symbol>
    <symbol id="react" xmlns="http://www.w3.org/2000/svg" viewBox="0 0 128 128">
        <g fill="#61DAFB">
            <circle cx="64" cy="64" r="11.4"/>
            <path d="M107.3 45.2c-2.2-.8-4.5-1.6-6.9-2.3.6-2.4 1.1-4.8 1.5-7.1 2.1-13.2-.2-22.5-6.6-26.1-1.9-1.1-4-1.6-6.4-1.6-7 0-15.9 5.2-24.9 13.9-9-8.7-17.9-13.9-24.9-13.9-2.4 0-4.5.5-6.4 1.6-6.4 3.7-8.7 13-6.6 26.1.4 2.3.9 4.7 1.5 7.1-2.4.7-4.7 1.4-6.9 2.3C8.2 50 1.4 56.6 1.4 64s6.9 14 19.3 18.8c2.2.8 4.5 1.6 6.9 2.3-.6 2.4-1.1 4.8-1.5 7.1-2.1 13.2.2 22.5 6.6 26.1 1.9 1.1 4 1.6 6.4 1.6 7.1 0 16-5.2 24.9-13.9 9 8.7 17.9 13.9 24.9 13.9 2.4 0 4.5-.5 6.4-1.6 6.4-3.7 8.7-13 6.6-26.1-.4-2.3-.9-4.7-1.5-7.1 2.4-.7 4.7-1.4 6.9-2.3 12.5-4.8 19.3-11.4 19.3-18.8s-6.8-14-19.3-18.8zM92.5 14.7c4.1 2.4 5.5 9.8 3.8 20.3-.3 2.1-.8 4.3-1.4 6.6-5.2-1.2-10.7-2-16.5-2.5-3.4-4.8-6.9-9.1-10.4-13 7.4-7.3 14.9-12.3 21-12.3 1.3 0 2.5.3 3.5.9zM81.3 74c-1.8 3.2-3.9 6.4-6.1 9.6-3.7.3-7.4.4-11.2.4-3.9 0-7.6-.1-11.2-.4-2.2-3.2-4.2-6.4-6-9.6-1.9-3.3-3.7-6.7-5.3-10 1.6-3.3 3.4-6.7 5.3-10 1.8-3.2 3.9-6.4 6.1-9.6 3.7-.3 7.4-.4 11.2-.4 3.9 0 7.6.1 11.2.4 2.2 3.2 4.2 6.4 6 9.6 1.9 3.3 3.7 6.7 5.3 10-1.7 3.3-3.4 6.6-5.3 10zm8.3-3.3c1.5 3.5 2.7 6.9 3.8 10.3-3.4.8-7 1.4-10.8 1.9 1.2-1.9 2.5-3.9 3.6-6 1.2-2.1 2.3-4.2 3.4-6.2zM64 97.8c-2.4-2.6-4.7-5.4-6.9-8.3 2.3.1 4.6.2 6.9.2 2.3 0 4.6-.1 6.9-.2-2.2 2.9-4.5 5.7-6.9 8.3zm-18.6-15c-3.8-.5-7.4-1.1-10.8-1.9 1.1-3.3 2.3-6.8 3.8-10.3 1.1 2 2.2 4.1 3.4 6.1 1.2 2.2 2.4 4.1 3.6 6.1zm-7-25.5c-1.5-3.5-2.7-6.9-3.8-10.3 3.4-.8 7-1.4 10.8-1.9-1.2 1.9-2.5 3.9-3.6 6-1.2 2.1-2.3 4.2-3.4 6.2zM64 30.2c2.4 2.6 4.7 5.4 6.9 8.3-2.3-.1-4.6-.2-6.9-.2-2.3 0-4.6.1-6.9.2 2.2-2.9 4.5-5.7 6.9-8.3zm22.2 21l-3.6-6c3.8.5 7.4 1.1 10.8 1.9-1.1 3.3-2.3 6.8-3.8 10.3-1.1-2.1-2.2-4.2-3.4-6.2zM31.7 35c-1.7-10.5-.3-17.9 3.8-20.3 1-.6 2.2-.9 3.5-.9 6 0 13.5 4.9 21 12.3-3.5 3.8-7 8.2-10.4 13-5.8.5-11.3 1.4-16.5 2.5-.6-2.3-1-4.5-1.4-6.6zM7 64c0-4.7 5.7-9.7 15.7-13.4 2-.8 4.2-1.5 6.4-2.1 1.6 5 3.6 10.3 6 15.6-2.4 5.3-4.5 10.5-6 15.5C15.3 75.6 7 69.6 7 64zm28.5 49.3c-4.1-2.4-5.5-9.8-3.8-20.3.3-2.1.8-4.3 1.4-6.6 5.2 1.2 10.7 2 16.5 2.5 3.4 4.8 6.9 9.1 10.4 13-7.4 7.3-14.9 12.3-21 12.3-1.3 0-2.5-.3-3.5-.9zM96.3 93c1.7 10.5.3 17.9-3.8 20.3-1 .6-2.2.9-3.5.9-6 0-13.5-4.9-21-12.3 3.5-3.8 7-8.2 10.4-13 5.8-.5 11.3-1.4 16.5-2.5.6 2.3 1 4.5 1.4 6.6zm9-15.6c-2 .8-4.2 1.5-6.4 2.1-1.6-5-3.6-10.3-6-15.6 2.4-5.3 4.5-10.5 6-15.5 13.8 4 22.1 10 22.1 15.6 0 4.7-5.8 9.7-15.7 13.4z"/>
        </g>
    </symbol>
    <symbol id="storybook" viewBox="0 0 128 128" fill="none" xmlns="http://www.w3.org/2000/svg">
        <path d="M107.346 2.012l-6.914.431.539 14.377c.028.795-.889 1.259-1.514.766l-4.63-3.65-5.485 4.162a.934.934 0 01-1.498-.784l.617-14.123L19.873 7.48a6.264 6.264 0 00-5.87 6.488l3.86 102.838a6.264 6.264 0 005.98 6.023l83.612 3.754a6.273 6.273 0 004.609-1.73 6.255 6.255 0 001.936-4.526V8.264a6.258 6.258 0 00-1.975-4.566 6.257 6.257 0 00-4.679-1.686zm-41.46 21.187c16.308 0 25.214 8.723 25.214 25.319-2.204 1.713-18.62 2.88-18.62.443.346-9.3-3.817-9.707-6.13-9.707-2.198 0-5.899.662-5.899 5.644 0 12.288 31.69 11.625 31.69 36.424 0 13.95-11.335 21.655-25.791 21.655-14.92 0-27.957-6.036-26.485-26.963.578-2.457 19.545-1.873 19.545 0-.23 8.635 1.735 11.175 6.707 11.175 3.817 0 5.553-2.103 5.553-5.646 0-12.621-31.227-13.063-31.227-36.201 0-13.285 9.138-22.143 25.444-22.143z" fill="#FF4785"/>
    </symbol>
    <symbol id="tailwind" xmlns="http://www.w3.org/2000/svg" viewBox="0 0 128 128">
        <path d="M64.004 25.602c-17.067 0-27.73 8.53-32 25.597 6.398-8.531 13.867-11.73 22.398-9.597 4.871 1.214 8.352 4.746 12.207 8.66C72.883 56.629 80.145 64 96.004 64c17.066 0 27.73-8.531 32-25.602-6.399 8.536-13.867 11.735-22.399 9.602-4.87-1.215-8.347-4.746-12.207-8.66-6.27-6.367-13.53-13.738-29.394-13.738zM32.004 64c-17.066 0-27.73 8.531-32 25.602C6.402 81.066 13.87 77.867 22.402 80c4.871 1.215 8.352 4.746 12.207 8.66 6.274 6.367 13.536 13.738 29.395 13.738 17.066 0 27.73-8.53 32-25.597-6.399 8.531-13.867 11.73-22.399 9.597-4.87-1.214-8.347-4.746-12.207-8.66C55.128 71.371 47.868 64 32.004 64zm0 0" fill="#38bdf8"/>
    </symbol>
    <symbol id="typescript" xmlns="http://www.w3.org/2000/svg" viewBox="0 0 128 128">
        <path fill="#fff" d="M22.67 47h99.67v73.67H22.67z"/>
        <path data-name="original" fill="#007acc" d="M1.5 63.91v62.5h125v-125H1.5zm100.73-5a15.56 15.56 0 017.82 4.5 20.58 20.58 0 013 4c0 .16-5.4 3.81-8.69 5.85-.12.08-.6-.44-1.13-1.23a7.09 7.09 0 00-5.87-3.53c-3.79-.26-6.23 1.73-6.21 5a4.58 4.58 0 00.54 2.34c.83 1.73 2.38 2.76 7.24 4.86 8.95 3.85 12.78 6.39 15.16 10 2.66 4 3.25 10.46 1.45 15.24-2 5.2-6.9 8.73-13.83 9.9a38.32 38.32 0 01-9.52-.1 23 23 0 01-12.72-6.63c-1.15-1.27-3.39-4.58-3.25-4.82a9.34 9.34 0 011.15-.73L82 101l3.59-2.08.75 1.11a16.78 16.78 0 004.74 4.54c4 2.1 9.46 1.81 12.16-.62a5.43 5.43 0 00.69-6.92c-1-1.39-3-2.56-8.59-5-6.45-2.78-9.23-4.5-11.77-7.24a16.48 16.48 0 01-3.43-6.25 25 25 0 01-.22-8c1.33-6.23 6-10.58 12.82-11.87a31.66 31.66 0 019.49.26zm-29.34 5.24v5.12H56.66v46.23H45.15V69.26H28.88v-5a49.19 49.19 0 01.12-5.17C29.08 59 39 59 51 59h21.83z"/>
    </symbol>
    <symbol id="vscode" xmlns="http://www.w3.org/2000/svg" viewBox="0 0 128 128">
        <mask id="a__vscode" width="128" height="128" x="0" y="0" maskUnits="userSpaceOnUse" style="mask-type:alpha">
            <path fill="#fff" fill-rule="evenodd" d="M90.767 127.126a7.968 7.968 0 0 0 6.35-.244l26.353-12.681a8 8 0 0 0 4.53-7.209V21.009a8 8 0 0 0-4.53-7.21L97.117 1.12a7.97 7.97 0 0 0-9.093 1.548l-50.45 46.026L15.6 32.013a5.328 5.328 0 0 0-6.807.302l-7.048 6.411a5.335 5.335 0 0 0-.006 7.888L20.796 64 1.74 81.387a5.336 5.336 0 0 0 .006 7.887l7.048 6.411a5.327 5.327 0 0 0 6.807.303l21.974-16.68 50.45 46.025a7.96 7.96 0 0 0 2.743 1.793Zm5.252-92.183L57.74 64l38.28 29.058V34.943Z" clip-rule="evenodd"/>
        </mask>
        <g mask="url(#a__vscode)">
            <path fill="#0065A9" d="M123.471 13.82 97.097 1.12A7.973 7.973 0 0 0 88 2.668L1.662 81.387a5.333 5.333 0 0 0 .006 7.887l7.052 6.411a5.333 5.333 0 0 0 6.811.303l103.971-78.875c3.488-2.646 8.498-.158 8.498 4.22v-.306a8.001 8.001 0 0 0-4.529-7.208Z"/>
            <g filter="url(#b__vscode)">
                <path fill="#007ACC" d="m123.471 114.181-26.374 12.698A7.973 7.973 0 0 1 88 125.333L1.662 46.613a5.333 5.333 0 0 1 .006-7.887l7.052-6.411a5.333 5.333 0 0 1 6.811-.303l103.971 78.874c3.488 2.647 8.498.159 8.498-4.219v.306a8.001 8.001 0 0 1-4.529 7.208Z"/>
            </g>
            <g filter="url(#c__vscode)">
                <path fill="#1F9CF0" d="M97.098 126.882A7.977 7.977 0 0 1 88 125.333c2.952 2.952 8 .861 8-3.314V5.98c0-4.175-5.048-6.266-8-3.313a7.977 7.977 0 0 1 9.098-1.549L123.467 13.8A8 8 0 0 1 128 21.01v85.982a8 8 0 0 1-4.533 7.21l-26.369 12.681Z"/>
            </g>
            <path fill="url(#d__vscode)" fill-rule="evenodd" d="M90.69 127.126a7.968 7.968 0 0 0 6.349-.244l26.353-12.681a8 8 0 0 0 4.53-7.21V21.009a8 8 0 0 0-4.53-7.21L97.039 1.12a7.97 7.97 0 0 0-9.093 1.548l-50.45 46.026-21.974-16.68a5.328 5.328 0 0 0-6.807.302l-7.048 6.411a5.336 5.336 0 0 0-.006 7.888L20.718 64 1.662 81.386a5.335 5.335 0 0 0 .006 7.888l7.048 6.411a5.328 5.328 0 0 0 6.807.303l21.975-16.681 50.45 46.026a7.959 7.959 0 0 0 2.742 1.793Zm5.252-92.184L57.662 64l38.28 29.057V34.943Z" clip-rule="evenodd" opacity="0.25" style="mix-blend-mode:overlay"/>
        </g>
        <defs>
            <filter id="b__vscode" width="144.744" height="113.408" x="-8.41115" y="22.5944" color-interpolation-filters="sRGB" filterUnits="userSpaceOnUse">
                <feFlood flood-opacity="0" result="BackgroundImageFix"/>
                <feColorMatrix in="SourceAlpha" result="hardAlpha" values="0 0 0 0 0 0 0 0 0 0 0 0 0 0 0 0 0 0 127 0"/>
                <feOffset />
                <feGaussianBlur stdDeviation="4.16667"/>
                <feColorMatrix values="0 0 0 0 0 0 0 0 0 0 0 0 0 0 0 0 0 0 0.25 0"/>
                <feBlend in2="BackgroundImageFix" mode="overlay" result="effect1_dropShadow_1_36"/>
                <feBlend in="SourceGraphic" in2="effect1_dropShadow_1_36" result="shape"/>
            </filter>
            <filter id="c__vscode" width="56.6667" height="144.007" x="79.6667" y="-8.0035" color-interpolation-filters="sRGB" filterUnits="userSpaceOnUse">
                <feFlood flood-opacity="0" result="BackgroundImageFix"/>
                <feColorMatrix in="SourceAlpha" result="hardAlpha" values="0 0 0 0 0 0 0 0 0 0 0 0 0 0 0 0 0 0 127 0"/>
                <feOffset />
                <feGaussianBlur stdDeviation="4.16667"/>
                <feColorMatrix values="0 0 0 0 0 0 0 0 0 0 0 0 0 0 0 0 0 0 0.25 0"/>
                <feBlend in2="BackgroundImageFix" mode="overlay" result="effect1_dropShadow_1_36"/>
                <feBlend in="SourceGraphic" in2="effect1_dropShadow_1_36" result="shape"/>
            </filter>
            <linearGradient id="d__vscode" x1="63.9222" x2="63.9222" y1="0.329902" y2="127.67" gradientUnits="userSpaceOnUse">
                <stop stop-color="#fff"/>
                <stop offset="1" stop-color="#fff" stop-opacity="0"/>
            </linearGradient>
        </defs>
    </symbol>
    <symbol id="windows11" xmlns="http://www.w3.org/2000/svg" viewBox="0 0 128 128">
        <path fill="#0078d4" d="M67.328 67.331h60.669V128H67.328zm-67.325 0h60.669V128H.003zM67.328 0h60.669v60.669H67.328zM.003 0h60.669v60.669H.003z"/>
    </symbol>
</svg>