<!-- https://devicon.dev/ -->
<svg width="0" height="0" fill="none" style="visibility: hidden; position: absolute;" aria-hidden="true">
    <symbol id="11ty" viewBox="0 0 128 128">
        <path fill="#1F1F1F" d="M18 0h92v128H18z"></path>
        <path
            d="M55.3 36.3h.4c1.1 0 1.5.9 1.5 2.3v41.8c0 1.8-.4 3-1.6 3l-4.8-.1c-1.2 0-1.6-1-1.6-3V45.5l-2.1.5c-1 0-1.5-.8-1.5-2.2v-3c0-1.2.4-2 1.4-2.2l8.3-2.2zm16 36.1l.1 3 .6 1.3.6.6.8.1h2.2c1 0 1.7.8 1.7 2v1.9c0 1.2-.6 2-1.8 2h-3.2l-2.3-.1c-.7-.2-1.4-.5-2.2-1a5.7 5.7 0 01-2-1.9c-.4-.8-.8-1.9-1-3.2-.4-1.4-.5-3-.5-4.8v-16h-1.5c-1.1 0-1.6-1-1.6-2.4v-1.7c0-1.4.5-2.3 1.6-2.3h1.5v-.1l.6-12.3c0-1.5.5-2.5 1.6-2.5h3.1c1.2 0 1.6 1 1.6 2.5v12.3h3.6c1.1 0 1.6 1 1.6 2.4V54c0 1.4-.5 2.3-1.6 2.3h-3.6v16.2zm9.4 15.7c0-2 .3-3.2 1.5-3.2.2 0 .4 0 1.4.4l1.1.3.2-.1.4-.7c.3-.6.4-1.6.4-3l-.6-3.3L79 52.7v-.9c0-1.2.3-2 1.2-2H84c.5 0 1 .3 1.3.6.3.4.5.9.6 1.6l3.4 18 2.6-17.8c.1-.8.3-1.3.6-1.7.3-.4.8-.6 1.3-.6h2.6c1 0 1.4.8 1.4 2l-.1.8L92 82.2c-.5 2.5-1 4.4-1.5 5.7a6.6 6.6 0 01-2 3c-.9.6-1.9.9-3.1.9h-.3c-2 0-3.3-.6-4.1-1.7-.3-.4-.4-1-.4-2zM31.3 38.8l8.2-2.1h.5c1 0 1.4.8 1.4 2.2v41.9c0 1.8-.4 2.9-1.6 2.9h-4.7c-1.2 0-1.6-1.1-1.6-3v-35l-2 .6c-1.2 0-1.6-.9-1.6-2.2v-3c0-1.2.4-2 1.4-2.3z"
            fill="#FFF"></path>
    </symbol>

    <symbol id="bootstrap" viewBox="0 0 128 128">
        <defs>
            <linearGradient id="a" x1="76.079" x2="523.48" y1="10.798" y2="365.95"
                gradientTransform="translate(1.11 14.613) scale(.24566)" gradientUnits="userSpaceOnUse">
                <stop offset="0" stop-color="#9013fe"></stop>
                <stop offset="1" stop-color="#6610f2"></stop>
            </linearGradient>
            <linearGradient id="b" x1="193.51" x2="293.51" y1="109.74" y2="278.87" gradientTransform="translate(0 52)"
                gradientUnits="userSpaceOnUse">
                <stop offset="0" stop-color="#fff"></stop>
                <stop offset="1" stop-color="#f1e5fc"></stop>
            </linearGradient>
            <filter id="c" width="197" height="249" x="161.9" y="135.46" color-interpolation-filters="sRGB"
                filterUnits="userSpaceOnUse">
                <feFlood flood-opacity="0" result="BackgroundImageFix"></feFlood>
                <feColorMatrix in="SourceAlpha" values="0 0 0 0 0 0 0 0 0 0 0 0 0 0 0 0 0 0 127 0"></feColorMatrix>
                <feOffset dy="4"></feOffset>
                <feGaussianBlur stdDeviation="8"></feGaussianBlur>
                <feColorMatrix values="0 0 0 0 0 0 0 0 0 0 0 0 0 0 0 0 0 0 0.15 0"></feColorMatrix>
                <feBlend in2="BackgroundImageFix" result="effect1_dropShadow"></feBlend>
                <feBlend in="SourceGraphic" in2="effect1_dropShadow" result="shape"></feBlend>
            </filter>
        </defs>
        <path fill="url(#a)"
            d="M14.985 27.712c-.237-6.815 5.072-13.099 12.249-13.099h73.54c7.177 0 12.486 6.284 12.249 13.099-.228 6.546.068 15.026 2.202 21.94 2.141 6.936 5.751 11.319 11.664 11.883v6.387c-5.913.564-9.523 4.947-11.664 11.883-2.134 6.914-2.43 15.394-2.202 21.94.237 6.815-5.072 13.098-12.249 13.098h-73.54c-7.177 0-12.486-6.284-12.249-13.098.228-6.546-.068-15.026-2.203-21.94-2.14-6.935-5.76-11.319-11.673-11.883v-6.387c5.913-.563 9.533-4.947 11.673-11.883 2.135-6.914 2.43-15.394 2.203-21.94z">
        </path>
        <path fill="url(#b)"
            d="M267.1 364.46c47.297 0 75.798-23.158 75.798-61.355 0-28.873-20.336-49.776-50.532-53.085v-1.203c22.185-3.609 39.594-24.211 39.594-47.219 0-32.783-25.882-54.138-65.322-54.138h-88.74v217zm-54.692-189.48h45.911c24.958 0 39.131 11.128 39.131 31.279 0 21.505-16.484 33.535-46.372 33.535h-38.67zm0 161.96v-71.431h45.602c32.661 0 49.608 12.03 49.608 35.49 0 23.459-16.484 35.941-47.605 35.941z"
            filter="url(#c)" transform="translate(1.494 2.203) scale(.24566)"></path>
    </symbol>

    <symbol id="chrome" viewBox="0 0 128 128">
        <circle fill="#fff" cx="64.149" cy="64.236" r="60.999"></circle>
        <path fill-opacity=".1"
            d="M102.966 75.327c0-21.439-17.379-38.819-38.817-38.819s-38.818 17.38-38.818 38.819h11.09c0-15.314 12.415-27.727 27.727-27.727 15.313 0 27.727 12.413 27.727 27.727">
        </path>
        <circle fill-opacity=".1" cx="66.922" cy="71.999" r="21.072"></circle>
        <linearGradient id="chrome-original-a" gradientUnits="userSpaceOnUse" x1="395.191" y1="484.168" x2="395.191"
            y2="484.723" gradientTransform="matrix(82 0 0 82 -32341.5 -39660.313)">
            <stop offset="0" stop-color="#81B4E0"></stop>
            <stop offset="1" stop-color="#0C5A94"></stop>
        </linearGradient>
        <circle fill="url(#chrome-original-a)" cx="64.149" cy="64.235" r="22.736"></circle>
        <linearGradient id="chrome-original-b" gradientUnits="userSpaceOnUse" x1="-608.91" y1="-597.648" x2="-608.91"
            y2="-547.185" gradientTransform="translate(675 599.775)">
            <stop offset="0" stop-color="#F06B59"></stop>
            <stop offset="1" stop-color="#DF2227"></stop>
        </linearGradient>
        <path fill="url(#chrome-original-b)"
            d="M119.602 36.508C104.336 5.792 67.06-6.732 36.343 8.534A62.105 62.105 0 0012.578 29.3l24.955 43.253c-4.597-14.606 3.521-30.174 18.127-34.77a27.676 27.676 0 017.935-1.274">
        </path>
        <linearGradient id="chrome-original-c" gradientUnits="userSpaceOnUse" x1="-657.835" y1="-491.393" x2="-632.327"
            y2="-533.537" gradientTransform="translate(675 599.775)">
            <stop offset="0" stop-color="#388B41"></stop>
            <stop offset="1" stop-color="#4CB749"></stop>
        </linearGradient>
        <path fill="url(#chrome-original-c)"
            d="M12.578 29.3c-19.1 28.492-11.486 67.071 17.005 86.171a62.133 62.133 0 0029.575 10.319l26.063-44.363c-9.745 11.811-27.22 13.486-39.032 3.74a27.717 27.717 0 01-8.657-12.613">
        </path>
        <linearGradient id="chrome-original-d" gradientUnits="userSpaceOnUse" x1="-572.385" y1="-486.91" x2="-599.557"
            y2="-552.345" gradientTransform="translate(675 599.775)">
            <stop offset="0" stop-color="#E4B022"></stop>
            <stop offset=".3" stop-color="#FCD209"></stop>
        </linearGradient>
        <path fill="url(#chrome-original-d)"
            d="M59.158 125.791c34.204 2.585 64.027-23.047 66.613-57.25a62.097 62.097 0 00-6.17-32.031H63.595c15.312.07 27.67 12.541 27.598 27.854a27.725 27.725 0 01-5.972 17.064">
        </path>
        <linearGradient id="chrome-original-e" gradientUnits="userSpaceOnUse" x1="-649.391" y1="-528.885" x2="-649.391"
            y2="-573.247" gradientTransform="translate(675 599.775)">
            <stop offset="0" stop-opacity=".15"></stop>
            <stop offset=".3" stop-opacity=".06"></stop>
            <stop offset="1" stop-opacity=".03"></stop>
        </linearGradient>
        <path fill="url(#chrome-original-e)"
            d="M12.578 29.3l24.955 43.253a27.725 27.725 0 011.107-18.854L13.686 27.636"></path>
        <linearGradient id="chrome-original-f" gradientUnits="userSpaceOnUse" x1="-588.158" y1="-514.559" x2="-618.657"
            y2="-483.505" gradientTransform="translate(675 599.775)">
            <stop offset="0" stop-opacity=".15"></stop>
            <stop offset=".3" stop-opacity=".06"></stop>
            <stop offset="1" stop-opacity=".03"></stop>
        </linearGradient>
        <path fill="url(#chrome-original-f)"
            d="M59.158 125.791l26.063-44.363a27.731 27.731 0 01-16.082 9.426l-11.091 34.937"></path>
        <linearGradient id="chrome-original-g" gradientUnits="userSpaceOnUse" x1="-588.6" y1="-505.621" x2="-584.163"
            y2="-549.431" gradientTransform="translate(675 599.775)">
            <stop offset="0" stop-opacity=".15"></stop>
            <stop offset=".3" stop-opacity=".06"></stop>
            <stop offset="1" stop-opacity=".03"></stop>
        </linearGradient>
        <path fill="url(#chrome-original-g)" d="M119.602 36.508H63.595a27.727 27.727 0 0121.626 10.537l35.491-8.873">
        </path>
    </symbol>

    <symbol id="codepen" viewBox="0 0 128 128">
        <path
            d="m125.571 39.926-58.5-39c-1.997-1.23-4.128-1.24-6.142 0l-58.5 39C.929 40.926 0 42.712 0 44.497v39c0 1.786.929 3.572 2.429 4.571l58.5 39.006c1.996 1.229 4.128 1.24 6.142 0l58.5-39.006c1.5-.999 2.429-2.785 2.429-4.57v-39c0-1.786-.929-3.572-2.429-4.572zm-56.07-24.144 43.07 28.715-19.214 12.858L69.5 41.425V15.784zm-11.001 0v25.644L34.642 57.354 15.428 44.498 58.5 15.782zm-47.5 39 13.786 9.215L11 73.212v-18.43zm47.5 57.43L15.428 83.497 34.642 70.64 58.5 86.569v25.643zM64 76.997l-19.428-13 19.428-13 19.428 13-19.428 13zm5.5 35.215V86.569L93.357 70.64l19.214 12.857-43.07 28.715zm47.5-39-13.786-9.215L117 54.783v18.429z">
        </path>
    </symbol>

    <symbol id="firefox" viewBox="0 0 128 128">
        <ellipse fill="#110070" cx="63.833" cy="63.79" rx="59.102" ry="59.14"></ellipse>
        <radialGradient id="firefox-original-a" cx="-407.857" cy="945.153" r="103.81"
            gradientTransform="matrix(1 0 0 -1 472.5 957)" gradientUnits="userSpaceOnUse">
            <stop offset="0" stop-color="#67C5D5"></stop>
            <stop offset=".16" stop-color="#66C2D3"></stop>
            <stop offset=".28" stop-color="#62B9CE"></stop>
            <stop offset=".385" stop-color="#5CA8C6"></stop>
            <stop offset=".483" stop-color="#5392BA"></stop>
            <stop offset=".576" stop-color="#4874AA"></stop>
            <stop offset=".665" stop-color="#3A5097"></stop>
            <stop offset=".749" stop-color="#2A2781"></stop>
            <stop offset=".815" stop-color="#1B006D"></stop>
            <stop offset="1" stop-color="#596AAD"></stop>
        </radialGradient>
        <ellipse fill="url(#firefox-original-a)" cx="63.833" cy="63.79" rx="57.985" ry="58.024"></ellipse>
        <radialGradient id="firefox-original-b" cx="-407.874" cy="938.23" r="52.024"
            gradientTransform="matrix(1 0 0 -1 472.5 957)" gradientUnits="userSpaceOnUse">
            <stop offset="0" stop-color="#0F80BC"></stop>
            <stop offset=".338" stop-color="#0A5F9E"></stop>
            <stop offset="1" stop-color="#00145A"></stop>
        </radialGradient>
        <path fill="url(#firefox-original-b)"
            d="M55.516 93.741c-.072-.314-.854-1.227-1.452-1.432-.598-.204-1.184.881-1.568-.92-1.261.724-1.805-.199-1.805-.199s-1.359.08-1.623 1.744c-.647.767-2.306 3.552-1.425.655.887-2.915-.936-.229-1.105 1.236-.316.65-.851.715-.515-2.209-1.168-.404-1.766-3.115-1.125-3.167-.744-1.037-.16-2.622.46-2.538.62.08 1.683-1.354 1.651-1.688-.033-.331.479-.094.448-2.327-.033-2.237.843-2.792.915-.92.075 1.864 1.189-.611 1.075-1.561-.116-.944.11-3.082.79-1.818-.79-3.125-.167-3.247.307-1.168 1.189.094 1.23.727 1.23.727 1.315-.324 1.945.667 2.048 1.223 1.218-1.438 2.45.113 2.45.113s.849-.282.443 1.195c-.409 1.472 1.765.676 1.246-.382 1.068-.541 2.655 1.097 3.155 2.216.5 1.123-.857 2.712.201 3.096 1.063.382.597 2.232.597 2.232s2.224 1.234.68 2.293l-.525 1.26s1.006 1.122 1.349.454c.342-.669.463.68.463.68-.128-.238.247 1.391 1.634 1.733 1.392.34 2.273 2.541.728 2.567-1.54.026-1.659-.016-2.076.883-.416.895-2.381.927-3.4-.232-1.083.367-3.009-.106-2.442-.972-.934.545-1.816-.918-1.087-1.572.73-.649-.41-1.491-.793-.56-.379.932-2.395 1.391-2.254-.194.042-.47 1.116-.745 1.129-.352.197.453.277-.037.196-.096z">
        </path>
        <radialGradient id="firefox-original-c" cx="-407.873" cy="938.23" r="52.023"
            gradientTransform="matrix(1 0 0 -1 472.5 957)" gradientUnits="userSpaceOnUse">
            <stop offset="0" stop-color="#0F80BC"></stop>
            <stop offset=".338" stop-color="#0A5F9E"></stop>
            <stop offset="1" stop-color="#00145A"></stop>
        </radialGradient>
        <path fill="url(#firefox-original-c)"
            d="M103.462 48.392c.307.306.914.237 1.249.144.337-.097.29-.336.581-.43.286-.097 1.392.43 1.103 1.578-.67.093-.914.908-.914.908s-.671.286-1.01.144c-.336-.144-.336-.097-.817-.051-.481.051-1.637-.618-.386-.618 1.252 0-.142-.576-.672-.576-.528 0-.096-.526.531-.381-.436-.718-.195-1.247.335-.718z">
        </path>
        <radialGradient id="firefox-original-d" cx="-407.877" cy="938.233" r="52.031"
            gradientTransform="matrix(1 0 0 -1 472.5 957)" gradientUnits="userSpaceOnUse">
            <stop offset="0" stop-color="#0F80BC"></stop>
            <stop offset=".338" stop-color="#0A5F9E"></stop>
            <stop offset="1" stop-color="#00145A"></stop>
        </radialGradient>
        <path fill="url(#firefox-original-d)"
            d="M99.125 50.989c-.335.333.05 1.339.482 1.29.43-.047 1.105-.238 1.105-.238s.335.669 0 .862c-.335.19-1.314.106-.046.574 1.298.477 1.633.333 1.729.093.098-.237.528-1.05.771-1.001.192-.43-.673-.813-.192-1.102.478-.287.097-1.337.097-1.337s-.675.047-.963.526c-.289.478-.671-.047-.96-.047a1.295 1.295 0 01-.242.524l-.191-.433c-.002.001-1.35-.046-1.59.289z">
        </path>
        <radialGradient id="firefox-original-e" cx="-407.023" cy="933.306" r="57.157"
            gradientTransform="matrix(1 0 0 -1 472.5 957)" gradientUnits="userSpaceOnUse">
            <stop offset="0" stop-color="#0F80BC"></stop>
            <stop offset=".264" stop-color="#0B629B"></stop>
            <stop offset=".844" stop-color="#031747"></stop>
            <stop offset="1" stop-color="#00022F"></stop>
        </radialGradient>
        <path fill="url(#firefox-original-e)"
            d="M90.139 51.777c-.042-.123.382-.619.269.023-.261.457 1.054.867 1.423.359 1.235-1.693-1.166-2.513-2.208-1.726-1.051.794-1.631-.908-.423-1.151 1.204-.243 1.306-2.42-.021-2.428 1.171-.578-.451-2.31-1.792-2.605-.217-1.862-2.181-3.046-3.214-2.371-1.043.678-1.132.56-2.661-.369-1.522-.923-2.255 1.92-1.135 3.164 1.126 1.251.309 3.267.355 2.923 0 0-.424.763-.396 1.048-1.289.437-1.665-1.377-2.465-1.779-.583.76-1.523 1.166-1.523 1.166l.07-1.547s-4.001-2.179-5.23-1.569c-1.515.467-1.873 3.975-.498 4.489 1.378.519-1.728 1.811 1.388 5.095 3.2 3.373 4.438 3.469 5.09 2.92.162-.138.441-.345.781-.576.031.13.083.254.163.372.801 1.204-1.862 2.154-2.233 3.879-.377 1.744-.029 4.987 1.55 5.098.301-1.729 3.257-1.118 1.648.448-1.637 1.596-.488 1.878-.488 1.878s.077 2.991 2.582 2.035c-.073.171-.131.39-.167.629-.7-.141-2.411-.356-2.83.838-.528 1.506-2.763-.511-4.328.166-1.556.671-3.829 2.875-3.063 4.425 1.47-.697 2.595 2.447.542 1.802-2.061-.647-1.661.58-1.661.58s-2.146 1.693-.137 3.494c-.771.119-2.143.978-1.681 2.864 0 0-.881.031-1 1.719-2.877.58-2.701 1.472 1.626.494-1.746.905 1.221 1.333 2.536 1.212 1.317-.12 4.773 1.584 2.176 1.602-2.601.016-1.827 1.289 1.29 1.349 3.111.064 2.784.785 3.246.754.462-.033 2.473 1.554 2.365 2.434-.113.88 2.107 1.794 3.551.785.074.916 3.871.202 4.433-1.449 4.112.628 4.017-.139 3.102-.626-2.059-.314-5.837-3.052-1.74-1.643 4.077 1.405.149-1.107-.925-2.072-2.341-.455-2.46-2.406-2.46-2.406s1.293-.736.273-2.576c2.528-.469 1.001-1.358 1.285-2.207.284-.85 1.568-1.934 2.008-2.021.083-.114.772.023.133.283-.552.005-.16 1.559.5 1.639 2.232.271 1.58-2.644.268-3.23-1.315-.591-.134-2.195.789-1.115.923 1.078 2.982-.133 2.209-1.498 1.228.851 1.89-1.902 1.367-3.481 1.642-1.423 1.588-4.26.319-4.896-.625-.312-.926-.513-1.078-.901.754-.356 1.754-.619 2.147-.268.638.577 2.415-1.014 2.302-2.874.748.41 1.939-3.381.927-4.708 2.317-3.239 1.693-3.533.918-2.99-1.166 1.616-4.994 3.548-2.026.685 2.88-2.779-.767-.671-1.986-.219-1.436 1.797-2.958.933-2.958.933s.064-1.472-1.79-1.503c.857-2.363-.523-1.51-1.007-2.154-.481-.648-.656-2.224-.507-2.626z">
        </path>
        <radialGradient id="firefox-original-f" cx="-407.875" cy="938.233" r="52.03"
            gradientTransform="matrix(1 0 0 -1 472.5 957)" gradientUnits="userSpaceOnUse">
            <stop offset="0" stop-color="#0F80BC"></stop>
            <stop offset=".338" stop-color="#0A5F9E"></stop>
            <stop offset="1" stop-color="#00145A"></stop>
        </radialGradient>
        <path fill="url(#firefox-original-f)"
            d="M60.1 28.097c-.359.938 1.173 2.461 1.943 1.971.772-.495 1.877-1.477 1.877-1.477s1.172.942.699 1.613c-.477.669-2.376 1.421.372 1.116 2.82-.311 3.334-.893 3.32-1.431-.015-.536.14-2.458.628-2.592.015-.986-1.917-.895-1.248-1.881.669-.982-.901-2.596-.901-2.596s-1.223.716-1.376 1.88c-.154 1.163-1.298.536-1.84.803.141.582-.026 1.207-.026 1.207l-.708-.626s-2.562 1.164-2.74 2.013z">
        </path>
        <radialGradient id="firefox-original-g" cx="-407.873" cy="938.232" r="52.027"
            gradientTransform="matrix(1 0 0 -1 472.5 957)" gradientUnits="userSpaceOnUse">
            <stop offset="0" stop-color="#0F80BC"></stop>
            <stop offset=".338" stop-color="#0A5F9E"></stop>
            <stop offset="1" stop-color="#00145A"></stop>
        </radialGradient>
        <path fill="url(#firefox-original-g)"
            d="M64.685 77.327c-.335.333.049 1.337.48 1.291.433-.049 1.106-.239 1.106-.239s.336.669 0 .861c-.337.19-1.314.108-.048.573 1.297.478 1.635.335 1.731.097.096-.239.528-1.053.769-1.006.194-.429-.673-.812-.193-1.097.482-.29.1-1.34.1-1.34s-.674.047-.963.526c-.288.478-.673-.049-.962-.049a1.31 1.31 0 01-.238.526l-.193-.43c-.002 0-1.35-.048-1.589.287z">
        </path>
        <defs>
            <ellipse id="firefox-original-h" cx="63.833" cy="63.79" rx="57.985" ry="58.024"></ellipse>
        </defs>
        <clipPath id="firefox-original-i">
            <use xlink:href="#firefox-original-h" overflow="visible"></use>
        </clipPath>
        <linearGradient id="firefox-original-j" gradientUnits="userSpaceOnUse" x1="-396.101" y1="935.823" x2="-379.307"
            y2="934.391" gradientTransform="matrix(1 0 0 -1 472.5 957)">
            <stop offset="0" stop-color="#0F80BC"></stop>
            <stop offset=".338" stop-color="#0A5F9E"></stop>
            <stop offset="1" stop-color="#00145A"></stop>
        </linearGradient>
        <path clip-path="url(#firefox-original-i)" fill="url(#firefox-original-j)"
            d="M65.133 5.647c-.907.203.611 3.49.611 3.49s-.054 2.207.32 2.319c.373.113 2.84.729 4.13 2.337 1.297 1.606.623 2.453-.456 1.988-1.08-.462-.794.956-.794.956s3.258 1.059.798.991c-2.466-.065 1.66 1.735 1.387 1.923-.273.19-.427 1.226-.427 1.226s-2.175.181-.332.955c6.235 2.626-.666 1.917-.666 1.917l-.881 1.083 1.743 2.186 1.34.958s2.821-.941 3.701-1.088c.88-.145 3.102-1.808 3.102-1.808s.666.477.168-.495c-.499-.972 1.834-.539 2.415.185l4.118 1.86a.778.778 0 00.291.374c.803.563-.726 1.529-.571 2.552.155 1.012 1.088 2.693 2.113 2.516-.179-.965 1.844-1.082 1.14-.005-.703 1.071.077 1.051.077 1.051s.65 1.515 2.025.673c-.055.462.227 1.392 1.408 1.453 0 0-.125.505.845.862-.132 1.73.422 1.785.559-.843.244 1.154.988-.469 1.136-1.245.15-.78 1.75-2.494 1.317-.979-.429 1.502 4.716 2.051 5.288.258.575-1.808 2.626-2.751 2.687-3.025.063-.28-4.564-.71-4.053-.492.512.217 1.464-.943 1.11-1.978.574.116.827-2.292-.083-2.915 1.139-2.396.649-2.471.182-1.994-.568 1.2-2.911 3.011-1.322.78 1.603-2.254-.651-.282-1.433.208-.686 1.334-1.891 1.075-1.891 1.075s-.221-.908-1.511-.604c.15-1.606-.65-.834-1.115-1.149-.284-.193-.556-.625-.724-.996 1.111.45 2.602.929 2.345.104-.167-.541 2.103.64 2.182.394l2.838-.394 2.757-1.743C85.38 4.813 65.133 5.647 65.133 5.647z">
        </path>
        <defs>
            <ellipse id="firefox-original-k" cx="63.833" cy="63.79" rx="57.985" ry="58.024"></ellipse>
        </defs>
        <clipPath id="firefox-original-l">
            <use xlink:href="#firefox-original-k" overflow="visible"></use>
        </clipPath>
        <linearGradient id="firefox-original-m" gradientUnits="userSpaceOnUse" x1="-433.831" y1="933.28" x2="-443.112"
            y2="919.649" gradientTransform="matrix(1 0 0 -1 472.5 957)">
            <stop offset="0" stop-color="#0F80BC"></stop>
            <stop offset=".338" stop-color="#0A5F9E"></stop>
            <stop offset="1" stop-color="#00145A"></stop>
        </linearGradient>
        <path clip-path="url(#firefox-original-l)" fill="url(#firefox-original-m)"
            d="M38.929 10.721c-10.531 4.728-18.477 14.473-18.477 14.473s.934 2.137 1.259 1.979c.329-.155-2.351 5.606-.384 5.93 1.978.325 7.666-3.564 6.611-3.206-1.052.354.593-2.105.593-2.105s2.96-1.313 1.209.202c-1.736 1.505 2.309.186 2.246.494-.064.31.522 1.142.522 1.142s-1.387 1.488.404.889c6.147-2.068.81 1.771.81 1.771l.105 1.307 2.659.463 1.572-.15s1.375-2.426 1.907-3.085c.533-.661 1.024-3.271 1.024-3.271s.799-.083-.212-.466c-1.013-.383.967-1.577 1.878-1.429l4.285-1.331a.812.812 0 00.468.082c.981-.114.487 1.596 1.289 2.241.794.641 2.618 1.26 3.27.468-.781-.592.671-2.003.857-.749.186 1.245.764.719.764.719s1.537-2.643 2.028-4.159c.269.375 2.777-3.296 2.017-5.047-.768-1.773.477-3.442.338-3.701-.142-.254-.893.528-.338.34.559-.191-1.583.769-1.866-2.053-.287-2.878-.705.242-.982 1.165.376 1.502 4.273-6.069 4.273-6.069l5.024-2.049c.001.003-11.434-.954-25.153 5.205z">
        </path>
        <linearGradient id="firefox-original-n" gradientUnits="userSpaceOnUse" x1="-409.766" y1="917.94" x2="-409.766"
            y2="940.502" gradientTransform="matrix(1 0 0 -1 472.5 957)">
            <stop offset=".014" stop-opacity="0"></stop>
            <stop offset=".65" stop-color="#C4E0E3" stop-opacity=".2"></stop>
            <stop offset=".822" stop-color="#C4E0E3"></stop>
            <stop offset=".85" stop-color="#CDE5E8"></stop>
            <stop offset=".944" stop-color="#E8F4F7"></stop>
            <stop offset="1" stop-color="#F2FAFC"></stop>
        </linearGradient>
        <ellipse opacity=".5" fill="url(#firefox-original-n)" cx="62.734" cy="27.828" rx="30.703" ry="19.892"></ellipse>
        <linearGradient id="firefox-original-o" gradientUnits="userSpaceOnUse" x1="-407.946" y1="896.271" x2="-394.013"
            y2="904.454" gradientTransform="matrix(1 0 0 -1 472.5 957)">
            <stop offset="0" stop-color="#DF731B"></stop>
            <stop offset=".545" stop-color="#DF731B"></stop>
            <stop offset=".701" stop-color="#EC8811"></stop>
            <stop offset=".859" stop-color="#F4950B"></stop>
            <stop offset="1" stop-color="#F79A09"></stop>
        </linearGradient>
        <path fill="url(#firefox-original-o)"
            d="M125.156 47.563l-1.421 9.114s-2.03-16.873-4.519-23.182c-3.815-9.666-5.513-9.588-5.523-9.573 2.554 6.493 2.091 9.981 2.091 9.981s-4.527-12.338-16.498-16.264c-14.175-4.646-21.396-2.968-21.343-2.902.054.065 14.651 2.551 17.24 6.109 0 0-6.201 0-12.372 1.777-.278.08 22.703 2.871 27.402 25.836 0 0-2.519-5.257-5.635-6.149 2.048 6.233 1.523 18.061-.428 23.94-.25.757-.508-3.269-4.352-5 1.23 8.821-.074 22.815-6.195 26.668-.477.3 3.837-13.812.868-8.356-17.727 27.18-38.802 10.997-47.351 5.229 6.862 1.681 14.149.471 18.369-2.414 4.258-2.912 6.776-5.038 9.039-4.536 2.261.506 3.767-1.763 2.01-3.776-1.758-2.018-6.027-4.79-11.802-3.278-4.072 1.066-9.12 5.573-16.825 1.01-6.572-3.895-6.528-7.057-6.528-9.071 0-2.016 1.793-5.08 5.056-4.578 2.922.452 1.382-1.264 4.527 0 .857.345-.086-4.112-1.305-6.968 2.348-4.9 9.964-6.356 10.532-6.786 1.03-.778.464-1.167.815-2.34.329-1.093.539-4.046-7.985-3.229-3.923.375-6.418-4.708-7.236-5.941.265-1.572.69-3.007 1.267-4.322.584-1.197 1.222-2.295 1.86-3.126l.53-.701c1.27-1.482 2.831-2.75 4.703-3.802.977-.552-10.926-.035-16.282 6.945-1.437.188-3.409-.227-5.614-.227-2.762 0-4.933.302-6.942.806-.322.082-.84.037-1.476-.113-1.767-1.832-6.77-6.234-6.999-12.206 0 0-7.273 5.59-6.185 20.828-.096 8.429-2.583 6.02-3.863 10.593-.596 2.167.895 3.799.895 3.863-.002.033 1.788-1.938 1.788-1.938s-11.277 19.539 3.289 44.483c12.553 21.503 33.621 31.006 55.481 29.157a67.807 67.807 0 0011.519-1.747c50.935-12.314 45.398-73.814 45.398-73.814z">
        </path>
        <linearGradient id="firefox-original-p" gradientUnits="userSpaceOnUse" x1="-430.496" y1="915.535" x2="-419.681"
            y2="914.609" gradientTransform="matrix(1 0 0 -1 472.5 957)">
            <stop offset=".011" stop-color="#941403"></stop>
            <stop offset=".897" stop-color="#E85C0A"></stop>
        </linearGradient>
        <path fill="url(#firefox-original-p)"
            d="M45.619 32.149s2.201 6.015 7.138 5.996c9.42-.038 9.609.094 9.669 1.238.188 3.487-1.534 4.629-2.192 5.125-.661.494-9.629 5.694-9.959 7.182-.329 1.487-10.349-14.143-10.349-14.143l5.693-5.398z">
        </path>
        <linearGradient id="firefox-original-q" gradientUnits="userSpaceOnUse" x1="-447.82" y1="918.532" x2="-408.777"
            y2="913.652" gradientTransform="matrix(1 0 0 -1 472.5 957)">
            <stop offset=".011" stop-color="#941403"></stop>
            <stop offset=".136" stop-color="#A32104"></stop>
            <stop offset=".498" stop-color="#C84107"></stop>
            <stop offset=".789" stop-color="#DF5509"></stop>
            <stop offset=".972" stop-color="#E85C0A"></stop>
        </linearGradient>
        <path fill="url(#firefox-original-q)"
            d="M50.634 38.634s3.06 3.907.746 5.47c-2.826 1.909 3.996 2.325 6.468.938 2.472-1.387 3.991-3.426 4.077-3.729.086-.304.898-3.043-4.262-2.088-3.262.603-4.458.742-7.029-.591z">
        </path>
        <linearGradient id="firefox-original-r" gradientUnits="userSpaceOnUse" x1="-423.63" y1="908.206" x2="-420.517"
            y2="909.576" gradientTransform="matrix(1 0 0 -1 472.5 957)">
            <stop offset="0" stop-color="#F2C8A9"></stop>
            <stop offset="1" stop-color="#ffc"></stop>
        </linearGradient>
        <path fill="url(#firefox-original-r)"
            d="M60.235 44.509c.5-.378 1.61-1.133 2.034-3-.309.125-.338-.23-.703-.076-6.927 7.227-7.193 2.194-10.974 3.208-3.446.943-4.221 2.237-4.366 2.337l.155.22c.993.505 1.944 2.113 2.66 3.55.699.833 1.168 1.242 1.235.94.329-1.485 9.3-6.685 9.959-7.179z">
        </path>
        <linearGradient id="firefox-original-s" gradientUnits="userSpaceOnUse" x1="-433.555" y1="870.093" x2="-381.191"
            y2="867.937" gradientTransform="matrix(1 0 0 -1 472.5 957)">
            <stop offset="0" stop-color="#B30000"></stop>
            <stop offset="1" stop-color="#DF731B"></stop>
        </linearGradient>
        <path fill="url(#firefox-original-s)"
            d="M8.478 50.25C7.064 53.218-2.012 68.555 12.8 94.081c14.495 24.985 39.58 33.144 65.191 27.601 7.311-1.582 15.74-7.302 21.113-11.5-3.452-8.706-1.409-8.379-3.259-7.234-20.631 12.773-37.032.173-49.726-1.437C-.58 95.593 8.642 50.158 8.642 50.158l-.164.092z">
        </path>
        <linearGradient id="firefox-original-t" gradientUnits="userSpaceOnUse" x1="-421.095" y1="878.22" x2="-393.792"
            y2="868.471" gradientTransform="matrix(1 0 0 -1 472.5 957)">
            <stop offset="0" stop-color="#941403"></stop>
            <stop offset="1" stop-color="#DF731B"></stop>
        </linearGradient>
        <path fill="url(#firefox-original-t)"
            d="M47.362 85.263c4.401 1.319 14.005.182 18.129-2.886 2.779-2.066 4.878-3.624 6.645-4.275-3.122-2.121-3.171.885-9.735 2.405-13.674 3.172-20.313-3.68-20.313-3.68.969 5.422 4.354 8.062 5.879 9-.404-.358-.616-.568-.605-.564z">
        </path>
        <linearGradient id="firefox-original-u" gradientUnits="userSpaceOnUse" x1="-483.865" y1="813.412" x2="-457.248"
            y2="813.412" gradientTransform="matrix(.999 .049 .049 -.999 450.28 926.467)">
            <stop offset=".056" stop-color="#B30000"></stop>
            <stop offset="1" stop-color="#DE5C01"></stop>
        </linearGradient>
        <path fill="url(#firefox-original-u)"
            d="M32.535 110.025S21.152 97.18 17.974 82.795c-4.685-4.425-8.01-8.167-10.218-10.873 1.275 10.236 6.494 26.128 24.779 38.103z">
        </path>
        <linearGradient id="firefox-original-v" gradientUnits="userSpaceOnUse" x1="-301.198" y1="955.307" x2="-286.717"
            y2="910.443" gradientTransform="scale(1 -1) rotate(-6.83 -8816.783 -2227.993)">
            <stop offset=".056" stop-color="#DE7210"></stop>
            <stop offset="1" stop-color="#F6C08F"></stop>
        </linearGradient>
        <path fill="url(#firefox-original-v)"
            d="M23.039 98.359s-7.855-11.184-4.91-20.679c2.65-8.538-.563-3.459-2.432-1.634-1.887 1.844-2.858-5.442-2.809-6.282l-.001-.027c-.119-.026-3.74 17.457 10.152 28.622z">
        </path>
        <linearGradient id="firefox-original-w" gradientUnits="userSpaceOnUse" x1="-476.095" y1="843.773" x2="-476.095"
            y2="793.626" gradientTransform="matrix(.999 .045 .045 -.999 451.05 929.576)">
            <stop offset=".056" stop-color="#DE7210"></stop>
            <stop offset="1" stop-color="#F6C08F"></stop>
        </linearGradient>
        <path fill="url(#firefox-original-w)"
            d="M11.401 88.61s-1.791-22.698 3.87-25.906c8.99-5.094.75-3.903-1.857-2.489-2.634 1.427-2.39-7.968-2.018-8.86.365-.881-9.278 8.882.005 37.255z">
        </path>
        <path fill="#A40000"
            d="M50.73 21.819s-7.116 7.229-7.063 7.255c.054.025.204 9.277.437 11.9.853 1.008 3.51 7.558 1.476 6.104-2.078-1.484-.58-1.516-.398-.763v.037c-.139.065-5.165-10.879 5.548-24.533z">
        </path>
        <linearGradient id="firefox-original-x" gradientUnits="userSpaceOnUse" x1="-453.894" y1="921.626" x2="-459.335"
            y2="935.568" gradientTransform="matrix(1 0 0 -1 472.5 957)">
            <stop offset=".011" stop-color="#941403"></stop>
            <stop offset=".472" stop-color="#E85C0A"></stop>
            <stop offset="1" stop-color="#F9BD5F"></stop>
        </linearGradient>
        <path fill="url(#firefox-original-x)"
            d="M16.877 16.25s-7.564 5.804-6.119 21.72c5.855-5.256 14.134-9.185 14.134-9.185-1.389-.876-7.762-5.975-8.015-12.535z">
        </path>
        <linearGradient id="firefox-original-y" gradientUnits="userSpaceOnUse" x1="-430.631" y1="918.428" x2="-417.593"
            y2="935.565" gradientTransform="matrix(1 0 0 -1 472.5 957)">
            <stop offset=".197" stop-color="#DE7210"></stop>
            <stop offset=".843" stop-color="#F9BD5F"></stop>
            <stop offset="1" stop-color="#FFFCCF"></stop>
        </linearGradient>
        <path fill="url(#firefox-original-y)"
            d="M35.519 33.656L46.88 47.785c-3.277-13.875-.758-22.199 7.311-26.741 1.194-.673-16.858.243-18.672 12.612z">
        </path>
        <linearGradient id="firefox-original-z" gradientUnits="userSpaceOnUse" x1="-437.523" y1="895.036" x2="-424.307"
            y2="868.604" gradientTransform="matrix(1 0 0 -1 472.5 957)">
            <stop offset=".017" stop-color="#941403"></stop>
            <stop offset=".5" stop-color="#E35100"></stop>
            <stop offset="1" stop-color="#DF731B"></stop>
        </linearGradient>
        <path fill="url(#firefox-original-z)"
            d="M27.514 68.56c1.938-12.208 18.927-10.413 18.927-10.413-.757.563-3.668.899-4.501 3.229-2.752 7.688-.127 24.483 17.01 31.527 1.807.745-34.299-6.303-31.436-24.343z">
        </path>
        <linearGradient id="firefox-original-A" gradientUnits="userSpaceOnUse" x1="-417.561" y1="911.246" x2="-414.261"
            y2="908.255" gradientTransform="matrix(1 0 0 -1 472.5 957)">
            <stop offset="0" stop-color="#EEA272"></stop>
            <stop offset=".186" stop-color="#EFA777"></stop>
            <stop offset=".406" stop-color="#F2B585"></stop>
            <stop offset=".643" stop-color="#F6CD9C"></stop>
            <stop offset=".89" stop-color="#FCEEBB"></stop>
            <stop offset="1" stop-color="#ffc"></stop>
        </linearGradient>
        <path fill="url(#firefox-original-A)"
            d="M62.171 41.84c-.083-.015-.157-.013-.194.037-.209.28-1.017 1.233-2.938 2.8-3.568 2.902-5.074 2.167-7.732 2.762-1.21.271-2.361 1.083-3.135 1.734.313.506.606 1.053.868 1.576.699.833 1.168 1.242 1.235.94.33-1.486 9.3-6.686 9.959-7.182.47-.351 1.464-1.049 1.937-2.667z">
        </path>
        <linearGradient id="firefox-original-B" gradientUnits="userSpaceOnUse" x1="-436.81" y1="904.181" x2="-421.649"
            y2="888.71" gradientTransform="matrix(1 0 0 -1 472.5 957)">
            <stop offset=".197" stop-color="#DF731B"></stop>
            <stop offset=".843" stop-color="#F9BD5F"></stop>
            <stop offset="1" stop-color="#FFFCCF"></stop>
        </linearGradient>
        <path fill="url(#firefox-original-B)"
            d="M51.218 60.294c.101-2.58-.081-8.846-2.762-11.565-2.05-2.077-2.53-4.458-2.805-7.173C23.376 49.877 20.196 60.753 22.423 60.4c17.815-2.826 22.823-3.171 28.795-.106z">
        </path>
        <linearGradient id="firefox-original-C" gradientUnits="userSpaceOnUse" x1="311.259" y1="1736.858" x2="311.259"
            y2="1680.021" gradientTransform="scale(1 -1) rotate(-14.72 -6736.722 1996.747)">
            <stop offset=".056" stop-color="#DE7210"></stop>
            <stop offset="1" stop-color="#F6C08F"></stop>
        </linearGradient>
        <path fill="url(#firefox-original-C)"
            d="M3.728 75.539s1.548-20.113 11.615-27.473c7.903-5.782 1.765-3.682-1.286-3.442-3.218.254-4.934 2.212-4.313 1.492l.031-.055c-.107-.124-7.555 6.127-6.047 29.478z">
        </path>
        <linearGradient id="firefox-original-D" gradientUnits="userSpaceOnUse" x1="-428.861" y1="929.136" x2="-448.077"
            y2="897.842" gradientTransform="matrix(.99 -.08 -.095 -1.173 528.218 1096.236)">
            <stop offset=".056" stop-color="#DE7210"></stop>
            <stop offset="1" stop-color="#F2C06E"></stop>
        </linearGradient>
        <path fill="url(#firefox-original-D)"
            d="M2.667 60.087s5.395-17.125 16.297-16.979c7.23.096 1.495-6.111-.692-7.054-2.282-.977-2.827-.939-3.36-.467-.799.708-7.972.435-12.245 24.5z">
        </path>
        <linearGradient id="firefox-original-E" gradientUnits="userSpaceOnUse" x1="-391.562" y1="884.775" x2="-411.976"
            y2="880.876" gradientTransform="matrix(1 0 0 -1 472.5 957)">
            <stop offset=".005" stop-color="#FFFAEE"></stop>
            <stop offset=".276" stop-color="#F5F89B"></stop>
            <stop offset=".31" stop-color="#F3ED91"></stop>
            <stop offset=".467" stop-color="#ECC267"></stop>
            <stop offset=".618" stop-color="#E6A046"></stop>
            <stop offset=".761" stop-color="#E2872E"></stop>
            <stop offset=".892" stop-color="#E07820"></stop>
            <stop offset="1" stop-color="#DF731B"></stop>
        </linearGradient>
        <path fill="url(#firefox-original-E)"
            d="M76.213 76.849c.82-.803.249-3.888-4.904-5.757-4.675-1.699-11.973 2.619-14.138 3.471 0 0 8.266-1.548 11.365-1.033 4.202.7 5.677 5.281 7.677 3.319z">
        </path>
        <linearGradient id="firefox-original-F" gradientUnits="userSpaceOnUse" x1="-924.082" y1="388.59" x2="-924.082"
            y2="341.086" gradientTransform="matrix(.992 .126 .126 -.992 883.114 546.453)">
            <stop offset=".056" stop-color="#DE7210"></stop>
            <stop offset="1" stop-color="#F2C06E"></stop>
        </linearGradient>
        <path fill="url(#firefox-original-F)"
            d="M10.631 71.208s-.895-16.836 6.649-24.026c5.924-5.647 1.065-3.243-1.438-2.713-2.64.56-3.85 2.367-3.413 1.704l.019-.049c-.101-.092-5.595 5.894-1.817 25.084z">
        </path>
        <linearGradient id="firefox-original-G" gradientUnits="userSpaceOnUse" x1="-955.606" y1="121.617" x2="-955.606"
            y2="74.12" gradientTransform="matrix(.932 .362 .362 -.932 862.955 499.986)">
            <stop offset=".056" stop-color="#DE7210"></stop>
            <stop offset="1" stop-color="#F2C06E"></stop>
        </linearGradient>
        <path fill="url(#firefox-original-G)"
            d="M4.82 65.859s3.188-16.555 12.244-21.714c7.111-4.053 1.816-2.89-.742-2.979-2.697-.092-4.306 1.37-3.723.831l.029-.042c-.074-.115-6.85 4.371-7.808 23.904z">
        </path>
        <linearGradient id="firefox-original-H" gradientUnits="userSpaceOnUse" x1="-30.438" y1="1441.928" x2="-43.666"
            y2="1422.086" gradientTransform="scale(1 -1) rotate(35.88 2315.534 760.698)">
            <stop offset=".056" stop-color="#DE7210"></stop>
            <stop offset="1" stop-color="#F2C072"></stop>
        </linearGradient>
        <path fill="url(#firefox-original-H)"
            d="M15.572 72.655s-1.743-10.035 2.014-14.974c2.998-3.941.366-2.014-1.026-1.445-1.452.593-2.002 1.764-1.804 1.334.191-.419-6.464 4.738.816 15.085z">
        </path>
        <linearGradient id="firefox-original-I" gradientUnits="userSpaceOnUse" x1="-23.279" y1="1448.429" x2="-36.506"
            y2="1428.588" gradientTransform="scale(1 -1) rotate(35.88 2315.534 760.698)">
            <stop offset=".056" stop-color="#DE7210"></stop>
            <stop offset="1" stop-color="#F2C072"></stop>
        </linearGradient>
        <path fill="url(#firefox-original-I)"
            d="M17.564 63.193s-1.743-10.035 2.013-14.975c2.998-3.941.366-2.013-1.026-1.445-1.452.593-2.003 1.765-1.804 1.335.192-.42-6.462 4.737.817 15.085z">
        </path>
        <linearGradient id="firefox-original-J" gradientUnits="userSpaceOnUse" x1="-459.905" y1="914.636" x2="-465.692"
            y2="903.834" gradientTransform="matrix(1 0 0 -1 472.5 957)">
            <stop offset=".056" stop-color="#DE7210"></stop>
            <stop offset="1" stop-color="#EED8A5"></stop>
        </linearGradient>
        <path fill="url(#firefox-original-J)"
            d="M7.028 49.475s4.072-8.342 9.483-9.985c4.318-1.31 1.344-1.29.014-1.615-1.39-.337-2.421.232-2.046.021.367-.206-7.301.049-7.451 11.579z">
        </path>
        <linearGradient id="firefox-original-K" gradientUnits="userSpaceOnUse" x1="-460.486" y1="908.034" x2="-466.272"
            y2="897.234" gradientTransform="matrix(1 0 0 -1 472.5 957)">
            <stop offset=".056" stop-color="#DE7210"></stop>
            <stop offset="1" stop-color="#EED8A5"></stop>
        </linearGradient>
        <path fill="url(#firefox-original-K)"
            d="M6.447 56.076s4.071-8.342 9.483-9.984c4.318-1.31 1.344-1.292.013-1.617-1.39-.336-2.421.234-2.045.022.366-.206-7.302.05-7.451 11.579z">
        </path>
        <linearGradient id="firefox-original-L" gradientUnits="userSpaceOnUse" x1="-453.93" y1="912.618" x2="-459.523"
            y2="898.731" gradientTransform="matrix(1 0 0 -1 472.5 957)">
            <stop offset=".056" stop-color="#DE7210"></stop>
            <stop offset="1" stop-color="#F2C072"></stop>
        </linearGradient>
        <path fill="url(#firefox-original-L)"
            d="M9.403 54.255s7.181-14.715 16.728-17.614c7.619-2.311 2.373-2.278.024-2.849-2.453-.594-4.271.413-3.61.039.647-.364-12.879.085-13.142 20.424z">
        </path>
        <linearGradient id="firefox-original-M" gradientUnits="userSpaceOnUse" x1="-451.803" y1="919.379" x2="-465.029"
            y2="899.54" gradientTransform="matrix(1 0 0 -1 472.5 957)">
            <stop offset=".056" stop-color="#DE7210"></stop>
            <stop offset="1" stop-color="#F2C072"></stop>
        </linearGradient>
        <path fill="url(#firefox-original-M)"
            d="M14.312 46.33s4.466-9.152 10.404-10.955c4.739-1.438 1.475-1.417.015-1.772-1.526-.369-2.656.256-2.245.023.402-.228-8.011.052-8.174 12.704z">
        </path>
        <linearGradient id="firefox-original-N" gradientUnits="userSpaceOnUse" x1="-450.913" y1="915.373" x2="-462.969"
            y2="897.289" gradientTransform="matrix(1 0 0 -1 472.5 957)">
            <stop offset=".056" stop-color="#DE7210"></stop>
            <stop offset="1" stop-color="#F2C072"></stop>
        </linearGradient>
        <path fill="url(#firefox-original-N)"
            d="M15.768 49.563s4.071-8.342 9.482-9.983c4.319-1.311 1.345-1.292.014-1.617-1.391-.337-2.422.233-2.046.022.365-.208-7.301.05-7.45 11.578z">
        </path>
        <linearGradient id="firefox-original-O" gradientUnits="userSpaceOnUse" x1="-412.122" y1="918.189" x2="-411.167"
            y2="916.487" gradientTransform="matrix(1 0 0 -1 472.5 957)">
            <stop offset="0" stop-color="#8B8B89"></stop>
            <stop offset="1" stop-color="#120500"></stop>
        </linearGradient>
        <path fill="url(#firefox-original-O)"
            d="M62.428 39.383c-.047-.87-.176-1.153-4.339-1.225.477.216 1.3.65 2.206 1.393 1.196.98 1.39 2.073 1.514 3.204.404-.769.701-1.833.619-3.372z">
        </path>
        <linearGradient id="firefox-original-P" gradientUnits="userSpaceOnUse" x1="-449.701" y1="923.971" x2="-449.701"
            y2="929.197" gradientTransform="matrix(1 0 0 -1 472.5 957)">
            <stop offset=".056" stop-color="#DE7210"></stop>
            <stop offset="1" stop-color="#F6C08F"></stop>
        </linearGradient>
        <path fill="url(#firefox-original-P)"
            d="M37.982 27.764l-3.611 5.81s-14.438-2.265-26.679 9.577c-1.011.978 8.007-20.94 30.29-15.387z"></path>
        <linearGradient id="firefox-original-Q" gradientUnits="userSpaceOnUse" x1="-463.88" y1="875.39" x2="-452.942"
            y2="888.172" gradientTransform="matrix(.999 .04 .04 -.999 451.516 931.973)">
            <stop offset=".056" stop-color="#DE7210"></stop>
            <stop offset="1" stop-color="#F6C08F"></stop>
        </linearGradient>
        <path fill="url(#firefox-original-Q)"
            d="M25.016 38.163s3.848-7.144 8.837-9.303c-2.579.081-8.37 2.098-8.837 9.303z"></path>
        <linearGradient id="firefox-original-R" gradientUnits="userSpaceOnUse" x1="-456.723" y1="918.976" x2="-462.51"
            y2="908.175" gradientTransform="matrix(1 0 0 -1 472.5 957)">
            <stop offset=".056" stop-color="#DE7210"></stop>
            <stop offset="1" stop-color="#EED8A5"></stop>
        </linearGradient>
        <path fill="url(#firefox-original-R)"
            d="M10.211 45.135s4.071-8.342 9.483-9.985c4.318-1.31 1.344-1.291.014-1.616-1.391-.336-2.421.234-2.046.021.365-.205-7.303.05-7.451 11.58z">
        </path>
        <linearGradient id="firefox-original-S" gradientUnits="userSpaceOnUse" x1="-490.528" y1="804.837" x2="-479.844"
            y2="817.323" gradientTransform="matrix(.995 .104 .104 -.995 420.84 891.22)">
            <stop offset=".056" stop-color="#DE7210"></stop>
            <stop offset="1" stop-color="#F6C08F"></stop>
        </linearGradient>
        <path fill="url(#firefox-original-S)"
            d="M18.739 39.257s4.201-6.724 9.198-8.514c-2.516-.083-8.29 1.519-9.198 8.514z"></path>
        <linearGradient id="firefox-original-T" gradientUnits="userSpaceOnUse" x1="-489.629" y1="832.599" x2="-476.791"
            y2="830.84" gradientTransform="matrix(.996 .09 .09 -.996 426.311 899.606)">
            <stop offset=".056" stop-color="#DE7210"></stop>
            <stop offset="1" stop-color="#F6C08F"></stop>
        </linearGradient>
        <path fill="url(#firefox-original-T)" d="M25.94 27.771s-3.167 1.384-8.752-.938l4.979 2.504 3.773-1.566z"></path>
        <linearGradient id="firefox-original-U" gradientUnits="userSpaceOnUse" x1="-465.214" y1="929.332" x2="-447.092"
            y2="926.85" gradientTransform="matrix(1 0 0 -1 472.5 957)">
            <stop offset=".056" stop-color="#DE7210"></stop>
            <stop offset="1" stop-color="#F6C08F"></stop>
        </linearGradient>
        <path fill="url(#firefox-original-U)"
            d="M24.409 28.66s-4.22 1.635-12.345-.799l6.949 2.765c.861-.795 5.396-1.966 5.396-1.966z"></path>
        <linearGradient id="firefox-original-V" gradientUnits="userSpaceOnUse" x1="-487.129" y1="833.244" x2="-475.332"
            y2="831.628" gradientTransform="matrix(.996 .09 .09 -.996 426.311 899.606)">
            <stop offset=".056" stop-color="#DE7210"></stop>
            <stop offset="1" stop-color="#F6C08F"></stop>
        </linearGradient>
        <path fill="url(#firefox-original-V)"
            d="M27.49 27.318s-2.801.853-7.977-1.149l4.979 2.502c.526-.464 2.998-1.353 2.998-1.353z"></path>
        <linearGradient id="firefox-original-W" gradientUnits="userSpaceOnUse" x1="-457.029" y1="925.518" x2="-467.666"
            y2="926.609" gradientTransform="matrix(1 0 0 -1 472.5 957)">
            <stop offset=".056" stop-color="#DE7210"></stop>
            <stop offset="1" stop-color="#F6C08F"></stop>
        </linearGradient>
        <path fill="url(#firefox-original-W)" d="M18.753 30.54s-2.082 1.728-7.414 1.798l4.611.151 2.803-1.949z"></path>
        <linearGradient id="firefox-original-X" gradientUnits="userSpaceOnUse" x1="-495.902" y1="803.548" x2="-481.188"
            y2="820.743" gradientTransform="matrix(.995 .104 .104 -.995 420.84 891.22)">
            <stop offset=".056" stop-color="#DE7210"></stop>
            <stop offset="1" stop-color="#F6C08F"></stop>
        </linearGradient>
        <path fill="url(#firefox-original-X)"
            d="M13.688 39.382S20.813 30.101 26.68 28c-2.955-.097-11.927 3.173-12.992 11.382z"></path>
        <linearGradient id="firefox-original-Y" gradientUnits="userSpaceOnUse" x1="-384.188" y1="835.447" x2="-355.369"
            y2="879.898" gradientTransform="matrix(1 0 0 -1 472.5 957)">
            <stop offset="0" stop-color="#DE5C01"></stop>
            <stop offset=".736" stop-color="#FEFD00"></stop>
            <stop offset=".778" stop-color="#FEFE26"></stop>
            <stop offset=".837" stop-color="#FFFE54"></stop>
            <stop offset=".889" stop-color="#FFFF76"></stop>
            <stop offset=".932" stop-color="#FFFF8B"></stop>
            <stop offset=".961" stop-color="#FFFF92"></stop>
        </linearGradient>
        <path fill="url(#firefox-original-Y)"
            d="M124.039 55.208s.768 17.22-23.152 41.141c-2.659 2.658-17.093 16.18-16.585 20.236.178 1.435 37.87-5.781 39.737-61.377z">
        </path>
        <linearGradient id="firefox-original-Z" gradientUnits="userSpaceOnUse" x1="-367.43" y1="929.703" x2="-386.301"
            y2="937.991" gradientTransform="matrix(1 0 0 -1 472.5 957)">
            <stop offset="0" stop-color="#F79A09"></stop>
            <stop offset=".736" stop-color="#FEFD00"></stop>
            <stop offset=".778" stop-color="#FEFE26"></stop>
            <stop offset=".837" stop-color="#FFFE54"></stop>
            <stop offset=".889" stop-color="#FFFF76"></stop>
            <stop offset=".932" stop-color="#FFFF8B"></stop>
            <stop offset=".961" stop-color="#FFFF92"></stop>
        </linearGradient>
        <path fill="url(#firefox-original-Z)"
            d="M77.663 14.705c28.813 2.214 34.391 22.931 34.393 21.662.074-20.139-27.335-21.669-34.393-21.662z"></path>
        <linearGradient id="firefox-original-aa" gradientUnits="userSpaceOnUse" x1="-354.754" y1="910.786" x2="-381.173"
            y2="935.312" gradientTransform="matrix(1 0 0 -1 472.5 957)">
            <stop offset="0" stop-color="#DE5C01"></stop>
            <stop offset=".736" stop-color="#FEFD00"></stop>
            <stop offset=".778" stop-color="#FEFE26"></stop>
            <stop offset=".837" stop-color="#FFFE54"></stop>
            <stop offset=".889" stop-color="#FFFF76"></stop>
            <stop offset=".932" stop-color="#FFFF8B"></stop>
            <stop offset=".961" stop-color="#FFFF92"></stop>
        </linearGradient>
        <path fill="url(#firefox-original-aa)"
            d="M86.438 22.581s19.974 4.083 25.607 25.254c.747 2.804-2.407-17.199-1.434-15.3.972 1.908-8.038-9.321-24.173-9.954z">
        </path>
        <linearGradient id="firefox-original-ab" gradientUnits="userSpaceOnUse" x1="-460.091" y1="836.71" x2="-471.153"
            y2="848.15" gradientTransform="matrix(1 -.028 -.028 -1 593.415 868.62)">
            <stop offset="0" stop-color="#F79A09"></stop>
            <stop offset=".736" stop-color="#FEFD00"></stop>
            <stop offset=".778" stop-color="#FEFE26"></stop>
            <stop offset=".837" stop-color="#FFFE54"></stop>
            <stop offset=".889" stop-color="#FFFF76"></stop>
            <stop offset=".932" stop-color="#FFFF8B"></stop>
            <stop offset=".961" stop-color="#FFFF92"></stop>
        </linearGradient>
        <path fill="url(#firefox-original-ab)"
            d="M94.42 22.063s18.039 3.761 18.218 32.381c.126 20.258 3.128 7.605 6.106 3.053 2.568-3.934.813-8.726.751-8.713-.009.002-1.299-3.729-.43-2.148.039.07-1.211-1.03-1.203-1.031.202-.031-.693-20.572-23.442-23.542z">
        </path>
        <linearGradient id="firefox-original-ac" gradientUnits="userSpaceOnUse" x1="-359.183" y1="896.737" x2="-352.957"
            y2="918.154" gradientTransform="matrix(1 0 0 -1 472.5 957)">
            <stop offset="0" stop-color="#F79A09"></stop>
            <stop offset=".736" stop-color="#FEFD00"></stop>
            <stop offset=".778" stop-color="#FEFE26"></stop>
            <stop offset=".837" stop-color="#FFFE54"></stop>
            <stop offset=".889" stop-color="#FFFF76"></stop>
            <stop offset=".932" stop-color="#FFFF8B"></stop>
            <stop offset=".961" stop-color="#FFFF92"></stop>
        </linearGradient>
        <path fill="url(#firefox-original-ac)"
            d="M114.733 25.94s6.479 16.878-.388 25.271c-2.241 2.739-2.492 16.772.246 15.483 2.745-1.291 2.149 7.452 1.789 8.446l-.006.031c.179.112 13.538-21.573-1.641-49.231z">
        </path>
        <linearGradient id="firefox-original-ad" gradientUnits="userSpaceOnUse" x1="-507.61" y1="782.982" x2="-507.837"
            y2="799.272" gradientTransform="scale(1 -1) rotate(2.35 20479.11 15387.252)">
            <stop offset="0" stop-color="#F79A09"></stop>
            <stop offset=".736" stop-color="#FEFD00"></stop>
            <stop offset=".778" stop-color="#FEFE26"></stop>
            <stop offset=".837" stop-color="#FFFE54"></stop>
            <stop offset=".889" stop-color="#FFFF76"></stop>
            <stop offset=".932" stop-color="#FFFF8B"></stop>
            <stop offset=".961" stop-color="#FFFF92"></stop>
        </linearGradient>
        <path fill="url(#firefox-original-ad)"
            d="M105.726 43.709s4.079 11.942-.192 20.479l3.231 7.215c2.369-5.82 5.387-18.131-3.039-27.694z"></path>
        <linearGradient id="firefox-original-ae" gradientUnits="userSpaceOnUse" x1="-615.186" y1="694.292" x2="-603.965"
            y2="716.393" gradientTransform="scale(1 -1) rotate(4.07 10630.367 10445.371)">
            <stop offset="0" stop-color="#F79A09"></stop>
            <stop offset=".736" stop-color="#FEFD00"></stop>
            <stop offset=".778" stop-color="#FEFE26"></stop>
            <stop offset=".837" stop-color="#FFFE54"></stop>
            <stop offset=".889" stop-color="#FFFF76"></stop>
            <stop offset=".932" stop-color="#FFFF8B"></stop>
            <stop offset=".961" stop-color="#FFFF92"></stop>
        </linearGradient>
        <path fill="url(#firefox-original-ae)"
            d="M112.899 42.289s2.821 18.954-7.357 36.065c.158 3.958-.537 7.54-1.49 10.491.444.583 1.037.982 1.82 1.052-.345.319-.689.618-1.022.901-.61.271-1.237.555-1.844.849l-.387.876a32.265 32.265 0 002.23-1.724c2.079-.919 3.95-1.631 3.946-1.636l-1.298.476c-.617.224-1.156.3-1.625.258 7.859-7.163 18.63-23.184 7.027-47.608zm-11.859 50.39c-.898.527-1.552 1.021-1.691 1.403-.104.278.509.117 1.568-.477.055-.319.1-.63.123-.926z">
        </path>
        <linearGradient id="firefox-original-af" gradientUnits="userSpaceOnUse" x1="-343.207" y1="938.701" x2="-341.697"
            y2="963.181" gradientTransform="scale(1 -1) rotate(4.07 14466.179 6568.719)">
            <stop offset="0" stop-color="#DE5C01"></stop>
            <stop offset=".736" stop-color="#FEFD00"></stop>
            <stop offset=".778" stop-color="#FEFE26"></stop>
            <stop offset=".837" stop-color="#FFFE54"></stop>
            <stop offset=".889" stop-color="#FFFF76"></stop>
            <stop offset=".932" stop-color="#FFFF8B"></stop>
            <stop offset=".961" stop-color="#FFFF92"></stop>
        </linearGradient>
        <path fill="url(#firefox-original-af)"
            d="M100.345 62.484s8.025 22.841-17.623 44.257c-1.513 1.263 10.411.722 11.454.249 3.074-1.396 6.707-10.714 6.278-9.6-.425 1.115 11.91-16.469-.109-34.906z">
        </path>
        <linearGradient id="firefox-original-ag" gradientUnits="userSpaceOnUse" x1="-414.032" y1="838.941" x2="-366.714"
            y2="867.224" gradientTransform="matrix(1 0 0 -1 472.5 957)">
            <stop offset="0" stop-color="#B9120D"></stop>
            <stop offset=".078" stop-color="#BB180D"></stop>
            <stop offset=".182" stop-color="#C0290C"></stop>
            <stop offset=".301" stop-color="#C8450A"></stop>
            <stop offset=".431" stop-color="#D36C08"></stop>
            <stop offset=".571" stop-color="#E29E05"></stop>
            <stop offset=".715" stop-color="#F4DA02"></stop>
            <stop offset=".792" stop-color="#FEFD00"></stop>
            <stop offset=".814" stop-color="#FEFD07"></stop>
            <stop offset=".846" stop-color="#FEFD1B"></stop>
            <stop offset=".884" stop-color="#FEFE3C"></stop>
            <stop offset=".927" stop-color="#FFFE69"></stop>
            <stop offset=".974" stop-color="#FFFFA3"></stop>
            <stop offset="1" stop-color="#FFFFC7"></stop>
        </linearGradient>
        <path fill="url(#firefox-original-ag)"
            d="M111.568 76.972s-4.84 29.626-38.309 32.011c-13.104.935-31.921-2.133-30.254 2.866.517 1.549 2.98 8.011 8.602 9.509 15.214 4.059 55.693 2.73 59.961-44.386z">
        </path>
        <linearGradient id="firefox-original-ah" gradientUnits="userSpaceOnUse" x1="-451.41" y1="752.749" x2="-402.936"
            y2="746.182" gradientTransform="matrix(.995 .099 .099 -.995 429.966 890.404)">
            <stop offset=".056" stop-color="#DE7210"></stop>
            <stop offset="1" stop-color="#F6C08F"></stop>
        </linearGradient>
        <path fill="url(#firefox-original-ah)"
            d="M83.656 99.393s-20.478 4.678-33.744-6.615c-12.139-10.335-6.117-1.637-4.47 2.654 1.691 4.401-7.823 1.039-9.252.331-1.425-.699 22.534 14.327 47.466 3.63z">
        </path>
        <linearGradient id="firefox-original-ai" gradientUnits="userSpaceOnUse" x1="-478.422" y1="705.757" x2="-422.136"
            y2="688.067" gradientTransform="matrix(.99 .145 .145 -.99 411.248 860.68)">
            <stop offset=".056" stop-color="#DE7210"></stop>
            <stop offset="1" stop-color="#F6C08F"></stop>
        </linearGradient>
        <path fill="url(#firefox-original-ai)"
            d="M70.46 110.554S46.032 105.753 38.298 89.2c-6.609-14.141-4.86-3.764-5.158.959-.313 4.858-7.163-1.776-8.078-2.93l-.046-.042c-.136.089 12.599 20.054 45.444 23.367z">
        </path>
        <linearGradient id="firefox-original-aj" gradientUnits="userSpaceOnUse" x1="-986.556" y1="507.388" x2="-959.793"
            y2="456.149" gradientTransform="scale(1 -1) rotate(10.37 2796.5 5770.96)">
            <stop offset=".056" stop-color="#DE7210"></stop>
            <stop offset="1" stop-color="#F6C08F"></stop>
        </linearGradient>
        <path fill="url(#firefox-original-aj)"
            d="M43.775 108.414s-11.667-9.037-16.928-21.429c-4.421-1.536-10.298-5.046-10.414-5.648 1.867 9.629 11.699 20.871 27.342 27.077z">
        </path>
    </symbol>

    <symbol id="git" viewBox="0 0 128 128">
        <path fill="#F34F29"
            d="M124.737 58.378L69.621 3.264c-3.172-3.174-8.32-3.174-11.497 0L46.68 14.71l14.518 14.518c3.375-1.139 7.243-.375 9.932 2.314 2.703 2.706 3.461 6.607 2.294 9.993l13.992 13.993c3.385-1.167 7.292-.413 9.994 2.295 3.78 3.777 3.78 9.9 0 13.679a9.673 9.673 0 01-13.683 0 9.677 9.677 0 01-2.105-10.521L68.574 47.933l-.002 34.341a9.708 9.708 0 012.559 1.828c3.778 3.777 3.778 9.898 0 13.683-3.779 3.777-9.904 3.777-13.679 0-3.778-3.784-3.778-9.905 0-13.683a9.65 9.65 0 013.167-2.11V47.333a9.581 9.581 0 01-3.167-2.111c-2.862-2.86-3.551-7.06-2.083-10.576L41.056 20.333 3.264 58.123a8.133 8.133 0 000 11.5l55.117 55.114c3.174 3.174 8.32 3.174 11.499 0l54.858-54.858a8.135 8.135 0 00-.001-11.501z">
        </path>
    </symbol>

    <symbol id="html5" viewBox="0 0 128 128">
        <path fill="#E44D26" d="M19.037 113.876L9.032 1.661h109.936l-10.016 112.198-45.019 12.48z"></path>
        <path fill="#F16529" d="M64 116.8l36.378-10.086 8.559-95.878H64z"></path>
        <path fill="#EBEBEB"
            d="M64 52.455H45.788L44.53 38.361H64V24.599H29.489l.33 3.692 3.382 37.927H64zm0 35.743l-.061.017-15.327-4.14-.979-10.975H33.816l1.928 21.609 28.193 7.826.063-.017z">
        </path>
        <path fill="#fff"
            d="M63.952 52.455v13.763h16.947l-1.597 17.849-15.35 4.143v14.319l28.215-7.82.207-2.325 3.234-36.233.335-3.696h-3.708zm0-27.856v13.762h33.244l.276-3.092.628-6.978.329-3.692z">
        </path>
    </symbol>


    <symbol id="js" viewBox="0 0 128 128">
        <path fill="#F0DB4F" d="M1.408 1.408h125.184v125.185H1.408z"></path>
        <path fill="#323330"
            d="M116.347 96.736c-.917-5.711-4.641-10.508-15.672-14.981-3.832-1.761-8.104-3.022-9.377-5.926-.452-1.69-.512-2.642-.226-3.665.821-3.32 4.784-4.355 7.925-3.403 2.023.678 3.938 2.237 5.093 4.724 5.402-3.498 5.391-3.475 9.163-5.879-1.381-2.141-2.118-3.129-3.022-4.045-3.249-3.629-7.676-5.498-14.756-5.355l-3.688.477c-3.534.893-6.902 2.748-8.877 5.235-5.926 6.724-4.236 18.492 2.975 23.335 7.104 5.332 17.54 6.545 18.873 11.531 1.297 6.104-4.486 8.08-10.234 7.378-4.236-.881-6.592-3.034-9.139-6.949-4.688 2.713-4.688 2.713-9.508 5.485 1.143 2.499 2.344 3.63 4.26 5.795 9.068 9.198 31.76 8.746 35.83-5.176.165-.478 1.261-3.666.38-8.581zM69.462 58.943H57.753l-.048 30.272c0 6.438.333 12.34-.714 14.149-1.713 3.558-6.152 3.117-8.175 2.427-2.059-1.012-3.106-2.451-4.319-4.485-.333-.584-.583-1.036-.667-1.071l-9.52 5.83c1.583 3.249 3.915 6.069 6.902 7.901 4.462 2.678 10.459 3.499 16.731 2.059 4.082-1.189 7.604-3.652 9.448-7.401 2.666-4.915 2.094-10.864 2.07-17.444.06-10.735.001-21.468.001-32.237z">
        </path>
    </symbol>


    <symbol id="markdown" viewBox="0 0 128 128">
        <path
            style="line-height:normal;font-variant-ligatures:normal;font-variant-position:normal;font-variant-caps:normal;font-variant-numeric:normal;font-variant-alternates:normal;font-variant-east-asian:normal;font-feature-settings:normal;font-variation-settings:normal;text-indent:0;text-align:start;text-decoration-line:none;text-decoration-style:solid;text-decoration-color:#000;text-transform:none;text-orientation:mixed;white-space:normal;shape-padding:0;shape-margin:0;inline-size:0;isolation:auto;mix-blend-mode:normal;solid-color:#000;solid-opacity:1"
            d="M11.95 24.348c-5.836 0-10.618 4.867-10.618 10.681v57.942c0 5.814 4.782 10.681 10.617 10.681h104.102c5.835 0 10.617-4.867 10.617-10.681V35.03c0-5.814-4.783-10.681-10.617-10.681H14.898l-.002-.002H11.95zm-.007 9.543h104.108c.625 0 1.076.423 1.076 1.14v57.94c0 .717-.453 1.14-1.076 1.14H11.949c-.623 0-1.076-.423-1.076-1.14V35.029c0-.715.451-1.135 1.07-1.138z"
            color="#000" font-weight="400" font-family="sans-serif" overflow="visible"></path>
        <path
            d="M20.721 84.1V43.9H32.42l11.697 14.78L55.81 43.9h11.696v40.2H55.81V61.044l-11.694 14.78-11.698-14.78V84.1H20.722zm73.104 0L76.28 64.591h11.697V43.9h11.698v20.69h11.698zm0 0">
        </path>
    </symbol>


    <symbol id="react" viewBox="0 0 128 128">
        <g fill="#61DAFB">
            <circle cx="64" cy="64" r="11.4"></circle>
            <path
                d="M107.3 45.2c-2.2-.8-4.5-1.6-6.9-2.3.6-2.4 1.1-4.8 1.5-7.1 2.1-13.2-.2-22.5-6.6-26.1-1.9-1.1-4-1.6-6.4-1.6-7 0-15.9 5.2-24.9 13.9-9-8.7-17.9-13.9-24.9-13.9-2.4 0-4.5.5-6.4 1.6-6.4 3.7-8.7 13-6.6 26.1.4 2.3.9 4.7 1.5 7.1-2.4.7-4.7 1.4-6.9 2.3C8.2 50 1.4 56.6 1.4 64s6.9 14 19.3 18.8c2.2.8 4.5 1.6 6.9 2.3-.6 2.4-1.1 4.8-1.5 7.1-2.1 13.2.2 22.5 6.6 26.1 1.9 1.1 4 1.6 6.4 1.6 7.1 0 16-5.2 24.9-13.9 9 8.7 17.9 13.9 24.9 13.9 2.4 0 4.5-.5 6.4-1.6 6.4-3.7 8.7-13 6.6-26.1-.4-2.3-.9-4.7-1.5-7.1 2.4-.7 4.7-1.4 6.9-2.3 12.5-4.8 19.3-11.4 19.3-18.8s-6.8-14-19.3-18.8zM92.5 14.7c4.1 2.4 5.5 9.8 3.8 20.3-.3 2.1-.8 4.3-1.4 6.6-5.2-1.2-10.7-2-16.5-2.5-3.4-4.8-6.9-9.1-10.4-13 7.4-7.3 14.9-12.3 21-12.3 1.3 0 2.5.3 3.5.9zM81.3 74c-1.8 3.2-3.9 6.4-6.1 9.6-3.7.3-7.4.4-11.2.4-3.9 0-7.6-.1-11.2-.4-2.2-3.2-4.2-6.4-6-9.6-1.9-3.3-3.7-6.7-5.3-10 1.6-3.3 3.4-6.7 5.3-10 1.8-3.2 3.9-6.4 6.1-9.6 3.7-.3 7.4-.4 11.2-.4 3.9 0 7.6.1 11.2.4 2.2 3.2 4.2 6.4 6 9.6 1.9 3.3 3.7 6.7 5.3 10-1.7 3.3-3.4 6.6-5.3 10zm8.3-3.3c1.5 3.5 2.7 6.9 3.8 10.3-3.4.8-7 1.4-10.8 1.9 1.2-1.9 2.5-3.9 3.6-6 1.2-2.1 2.3-4.2 3.4-6.2zM64 97.8c-2.4-2.6-4.7-5.4-6.9-8.3 2.3.1 4.6.2 6.9.2 2.3 0 4.6-.1 6.9-.2-2.2 2.9-4.5 5.7-6.9 8.3zm-18.6-15c-3.8-.5-7.4-1.1-10.8-1.9 1.1-3.3 2.3-6.8 3.8-10.3 1.1 2 2.2 4.1 3.4 6.1 1.2 2.2 2.4 4.1 3.6 6.1zm-7-25.5c-1.5-3.5-2.7-6.9-3.8-10.3 3.4-.8 7-1.4 10.8-1.9-1.2 1.9-2.5 3.9-3.6 6-1.2 2.1-2.3 4.2-3.4 6.2zM64 30.2c2.4 2.6 4.7 5.4 6.9 8.3-2.3-.1-4.6-.2-6.9-.2-2.3 0-4.6.1-6.9.2 2.2-2.9 4.5-5.7 6.9-8.3zm22.2 21l-3.6-6c3.8.5 7.4 1.1 10.8 1.9-1.1 3.3-2.3 6.8-3.8 10.3-1.1-2.1-2.2-4.2-3.4-6.2zM31.7 35c-1.7-10.5-.3-17.9 3.8-20.3 1-.6 2.2-.9 3.5-.9 6 0 13.5 4.9 21 12.3-3.5 3.8-7 8.2-10.4 13-5.8.5-11.3 1.4-16.5 2.5-.6-2.3-1-4.5-1.4-6.6zM7 64c0-4.7 5.7-9.7 15.7-13.4 2-.8 4.2-1.5 6.4-2.1 1.6 5 3.6 10.3 6 15.6-2.4 5.3-4.5 10.5-6 15.5C15.3 75.6 7 69.6 7 64zm28.5 49.3c-4.1-2.4-5.5-9.8-3.8-20.3.3-2.1.8-4.3 1.4-6.6 5.2 1.2 10.7 2 16.5 2.5 3.4 4.8 6.9 9.1 10.4 13-7.4 7.3-14.9 12.3-21 12.3-1.3 0-2.5-.3-3.5-.9zM96.3 93c1.7 10.5.3 17.9-3.8 20.3-1 .6-2.2.9-3.5.9-6 0-13.5-4.9-21-12.3 3.5-3.8 7-8.2 10.4-13 5.8-.5 11.3-1.4 16.5-2.5.6 2.3 1 4.5 1.4 6.6zm9-15.6c-2 .8-4.2 1.5-6.4 2.1-1.6-5-3.6-10.3-6-15.6 2.4-5.3 4.5-10.5 6-15.5 13.8 4 22.1 10 22.1 15.6 0 4.7-5.8 9.7-15.7 13.4z">
            </path>
        </g>
    </symbol>


    <symbol id="safari" viewBox="0 0 128 128">
        <linearGradient id="a" x1="295.835" x2="295.835" y1="274.049" y2="272.933"
            gradientTransform="matrix(112 0 0 -112 -33069.5 30695)" gradientUnits="userSpaceOnUse">
            <stop offset="0" stop-color="#19D7FF"></stop>
            <stop offset="1" stop-color="#1E64F0"></stop>
        </linearGradient>
        <circle cx="64" cy="64" r="62.5" fill="url(#a)"></circle>
        <path
            d="M63.5 7.6v9.2h1V7.6Zm-3.902.26-.996.08.4 5 .996-.08zm8.804 0-.4 5 .996.08.4-5zm-13.709.554-.986.172 1.6 9.101.986-.173zm18.614 0-1.6 9.1.986.174 1.6-9.102zM49.883 9.47l-.965.261 1.299 4.801.965-.261Zm28.234 0-1.299 4.8.965.262 1.299-4.8zm-32.846 1.363-.943.336 3.102 8.7.941-.337zm37.458 0-3.1 8.7.941.335 3.102-8.699zm4.62 1.852-2.2 4.601.902.43 2.201-4.6zm-46.695.007-.908.416 2.1 4.6.908-.414zm-4.32 2.26-.867.498 4.6 8 .867-.498zm55.332 0-4.6 8 .868.498 4.6-8zm-59.559 2.56-.816.577 2.9 4.101.817-.578zm63.786 0-2.9 4.1.816.578 2.9-4.101zm-67.61 2.968-.765.644 5.9 7 .764-.644zm71.434 0-5.899 7 .764.644 5.9-7zm-75.168 3.263-.697.717 3.6 3.5.696-.717zm-3.33 3.574-.639.768 7.1 5.9.64-.77zm85.562 0-7.101 5.899.64.77 7.1-5.901zM18.184 31.19l-.569.823 4.201 2.9.569-.824zm91.632 0-4.2 2.899.568.824 4.2-2.9zM15.55 35.367l-.498.867 8 4.6.498-.867zm96.902 0-8 4.6.498.867 8-4.6zm-99.14 4.28-.422.906 4.5 2.1.422-.907zm101.378 0-4.5 2.1.422.905 4.5-2.1zM11.375 44.13l-.35.937 8.6 3.202.35-.938zm105.25 0-8.6 3.201.35.938 8.6-3.202zM9.828 48.816l-.256.967 4.9 1.301.257-.967zm108.344 0-4.9 1.301.255.967 4.9-1.3zM8.688 53.607l-.174.985 9.1 1.601.173-.986zm110.624 0-9.1 1.6.175.986 9.1-1.601zM8.05 58.402l-.098.996 5 .5.098-.996zm111.902 0-5 .5.098.996 5-.5zM7.801 63.4v1H17v-1zM111 63.4v1h9.2v-1zm-98.049 4.403-5 .5.098.994 5-.5zm102.098 0-.098.994 5 .5.098-.994zm-97.436 3.705-9.1 1.6.175.984 9.1-1.6zm92.774 0-.174.984 9.1 1.6.173-.985zm-95.914 5.11-4.9 1.298.255.967 4.9-1.299zm99.054 0-.256.966 4.9 1.299.257-.967zm-93.902 2.814-8.6 3.199.35.937 8.6-3.199zm88.75 0-.35.937 8.6 3.2.35-.938zm-90.986 5.615-4.5 2.1.422.906 4.5-2.1zm93.222 0-.422.906 4.5 2.1.422-.907zm-87.56 1.92-8 4.6.498.867 8-4.6zm81.898 0-.498.867 8 4.6.498-.868zm-83.133 5.822-4.2 2.9.568.823 4.2-2.9zm84.368 0-.569.822 4.201 2.9.569-.822zm-78.504.926-7.1 5.9.639.77 7.101-5.9zm72.64 0-.64.77 7.101 5.9.639-.77zm-66.902 5.863-5.9 7 .765.645 5.899-7zm61.164 0-.764.645 5.899 7 .765-.645zm5.967.164-.697.717 3.6 3.5.696-.717zm-60.48 4.606-4.6 7.9.863.504 4.6-7.9zm47.863 0-.864.504 4.6 7.9.863-.504zm-53.74 1.164-2.901 4.1.816.577 2.9-4.101zm59.617 0-.817.576 2.9 4.101.817-.578zm-46.38 2.32-3.1 8.7.942.335 3.1-8.699zm33.141 0-.941.336 3.1 8.7.943-.337zm-25.263 2.182-1.6 9.1.986.173 1.6-9.1zm17.386 0-.986.174 1.6 9.1.986-.175zm-30.742.066-2.201 4.5.898.44 2.202-4.5zm44.098 0-.899.44 2.202 4.5.898-.44Zm-22.549.82v9.2h1v-9.2zm-13.283 2.272-1.301 4.9.967.256 1.3-4.9zm27.566 0-.967.256 1.301 4.9.967-.256zm-18.781 1.687-.4 5 .996.08.4-5zm9.996 0-.996.08.4 5 .996-.08z"
            style="-inkscape-stroke:none" color="#000" fill="#fff"></path>
        <path fill="#f00" d="m106.7 21-48 37.7 5.2 5.2z"></path>
        <path fill="#D01414" d="m63.9 63.9 6 6L106.7 21z"></path>
        <path fill="#fff" d="m58.7 58.7-37.7 48 42.9-42.8z"></path>
        <path fill="#ACACAC" d="m21 106.7 48.9-36.8-6-6z"></path>
    </symbol>


    <symbol id="sass" viewBox="0 0 128 128">
        <path fill-rule="evenodd" clip-rule="evenodd" fill="#CB6699"
            d="M1.219 56.156c0 .703.207 1.167.323 1.618.756 2.933 2.381 5.45 4.309 7.746 2.746 3.272 6.109 5.906 9.554 8.383 2.988 2.148 6.037 4.248 9.037 6.38.515.366 1.002.787 1.561 1.236-.481.26-.881.489-1.297.7-3.959 2.008-7.768 4.259-11.279 6.986-2.116 1.644-4.162 3.391-5.607 5.674-2.325 3.672-3.148 7.584-1.415 11.761.506 1.22 1.278 2.274 2.367 3.053.353.252.749.502 1.162.6 1.058.249 2.136.412 3.207.609l3.033-.002c3.354-.299 6.407-1.448 9.166-3.352 4.312-2.976 7.217-6.966 8.466-12.087.908-3.722.945-7.448-.125-11.153a11.696 11.696 0 00-.354-1.014c-.13-.333-.283-.657-.463-1.072l6.876-3.954.103.088c-.125.409-.258.817-.371 1.23-.817 2.984-1.36 6.02-1.165 9.117.208 3.3 1.129 6.389 3.061 9.146 1.562 2.23 5.284 2.313 6.944.075.589-.795 1.16-1.626 1.589-2.513 1.121-2.315 2.159-4.671 3.23-7.011l.187-.428c-.077 1.108-.167 2.081-.208 3.055-.064 1.521.025 3.033.545 4.48.445 1.238 1.202 2.163 2.62 2.326.97.111 1.743-.333 2.456-.896a10.384 10.384 0 002.691-3.199c1.901-3.491 3.853-6.961 5.576-10.54 1.864-3.871 3.494-7.855 5.225-11.792l.286-.698c.409 1.607.694 3.181 1.219 4.671.61 1.729 1.365 3.417 2.187 5.058.389.775.344 1.278-.195 1.928-2.256 2.72-4.473 5.473-6.692 8.223-.491.607-.98 1.225-1.389 1.888a3.701 3.701 0 00-.48 1.364 1.737 1.737 0 001.383 1.971 9.661 9.661 0 002.708.193c3.097-.228 5.909-1.315 8.395-3.157 3.221-2.386 4.255-5.642 3.475-9.501-.211-1.047-.584-2.065-.947-3.074-.163-.455-.174-.774.123-1.198 2.575-3.677 4.775-7.578 6.821-11.569.081-.157.164-.314.306-.482.663 3.45 1.661 6.775 3.449 9.792-.912.879-1.815 1.676-2.632 2.554-1.799 1.934-3.359 4.034-4.173 6.595-.35 1.104-.619 2.226-.463 3.405.242 1.831 1.742 3.021 3.543 2.604 3.854-.892 7.181-2.708 9.612-5.925 1.636-2.166 1.785-4.582 1.1-7.113-.188-.688-.411-1.365-.651-2.154.951-.295 1.878-.649 2.837-.868 4.979-1.136 9.904-.938 14.702.86 2.801 1.05 5.064 2.807 6.406 5.571 1.639 3.379.733 6.585-2.452 8.721-.297.199-.637.356-.883.605a.869.869 0 00-.205.67c.021.123.346.277.533.275 1.047-.008 1.896-.557 2.711-1.121 2.042-1.413 3.532-3.314 3.853-5.817l.063-.188-.077-1.63c-.031-.094.023-.187.016-.258-.434-3.645-2.381-6.472-5.213-8.688-3.28-2.565-7.153-3.621-11.249-3.788a25.401 25.401 0 00-9.765 1.503c-.897.325-1.786.71-2.688 1.073-.121-.219-.251-.429-.358-.646-.926-1.896-2.048-3.708-2.296-5.882-.176-1.544-.392-3.086-.025-4.613.353-1.469.813-2.913 1.246-4.362.223-.746.066-1.164-.646-1.5a2.854 2.854 0 00-.786-.258c-1.75-.254-3.476-.109-5.171.384-.6.175-1.036.511-1.169 1.175-.076.381-.231.746-.339 1.122-.443 1.563-.757 3.156-1.473 4.645-1.794 3.735-3.842 7.329-5.938 10.897-.227.385-.466.763-.752 1.23-.736-1.54-1.521-2.922-1.759-4.542-.269-1.832-.481-3.661-.025-5.479.339-1.356.782-2.687 1.19-4.025.193-.636.104-.97-.472-1.305-.291-.169-.62-.319-.948-.368a11.643 11.643 0 00-5.354.438c-.543.176-.828.527-.994 1.087-.488 1.652-.904 3.344-1.589 4.915-2.774 6.36-5.628 12.687-8.479 19.013-.595 1.321-1.292 2.596-1.963 3.882-.17.326-.418.613-.63.919-.17-.201-.236-.339-.235-.477.005-.813-.092-1.65.063-2.436a172.189 172.189 0 011.578-7.099c.47-1.946 1.017-3.874 1.538-5.807.175-.647.178-1.252-.287-1.796-.781-.911-2.413-1.111-3.381-.409l-.428.242.083-.69c.204-1.479.245-2.953-.161-4.41-.506-1.816-1.802-2.861-3.686-2.803-.878.027-1.8.177-2.613.497-3.419 1.34-6.048 3.713-8.286 6.568a2.592 2.592 0 01-.757.654c-2.893 1.604-5.795 3.188-8.696 4.778l-3.229 1.769c-.866-.826-1.653-1.683-2.546-2.41-2.727-2.224-5.498-4.393-8.244-6.592-2.434-1.949-4.792-3.979-6.596-6.56-1.342-1.92-2.207-4.021-2.29-6.395-.105-3.025.753-5.789 2.293-8.362 1.97-3.292 4.657-5.934 7.611-8.327 3.125-2.53 6.505-4.678 10.008-6.639 4.901-2.743 9.942-5.171 15.347-6.774 5.542-1.644 11.165-2.585 16.965-1.929 2.28.258 4.494.78 6.527 1.895 1.557.853 2.834 1.97 3.428 3.716.586 1.718.568 3.459.162 5.204-.825 3.534-2.76 6.447-5.195 9.05-3.994 4.267-8.866 7.172-14.351 9.091a39.478 39.478 0 01-9.765 2.083c-2.729.229-5.401-.013-7.985-.962-1.711-.629-3.201-1.591-4.399-2.987-.214-.25-.488-.521-.887-.287-.391.23-.46.602-.329.979.219.626.421 1.278.762 1.838.857 1.405 2.107 2.424 3.483 3.298 2.643 1.681 5.597 2.246 8.66 2.377 4.648.201 9.183-.493 13.654-1.74 6.383-1.78 11.933-4.924 16.384-9.884 3.706-4.13 6.353-8.791 6.92-14.419.277-2.747-.018-5.438-1.304-7.944-1.395-2.715-3.613-4.734-6.265-6.125C68.756 18.179 64.588 17 60.286 17h-4.31c-5.21 0-10.247 1.493-15.143 3.274-3.706 1.349-7.34 2.941-10.868 4.703-7.683 3.839-14.838 8.468-20.715 14.833-2.928 3.171-5.407 6.67-6.833 10.79a40.494 40.494 0 00-1.111 3.746m27.839 36.013c-.333 4.459-2.354 8.074-5.657 11.002-1.858 1.646-3.989 2.818-6.471 3.23-.9.149-1.821.185-2.694-.188-1.245-.532-1.524-1.637-1.548-2.814-.037-1.876.62-3.572 1.521-5.186 1.176-2.104 2.9-3.708 4.741-5.206 2.9-2.361 6.046-4.359 9.268-6.245l.243-.1c.498 1.84.735 3.657.597 5.507zM54.303 70.98c-.235 1.424-.529 2.849-.945 4.229-1.438 4.777-3.285 9.406-5.282 13.973-.369.845-.906 1.616-1.373 2.417a1.689 1.689 0 01-.283.334c-.578.571-1.126.541-1.418-.206-.34-.868-.549-1.797-.729-2.716-.121-.617-.092-1.265-.13-1.897.039-4.494 1.41-8.578 3.736-12.38.959-1.568 2.003-3.062 3.598-4.054a6.27 6.27 0 011.595-.706c.85-.239 1.372.154 1.231 1.006zm17.164 21.868l6.169-7.203c.257 2.675-4.29 8.015-6.169 7.203zm19.703-4.847c-.436.25-.911.43-1.358.661-.409.212-.544-.002-.556-.354a2.385 2.385 0 01.093-.721c.833-2.938 2.366-5.446 4.647-7.486l.16-.082c1.085 3.035-.169 6.368-2.986 7.982z">
        </path>
    </symbol>

    <!-- https://fonts.google.com/icons?icon.set=Material+Icons&selected=Material+Icons+Outlined:code:&icon.query=code&icon.size=128&icon.color=%235f6368 -->

    <symbol id="code" viewBox="0 0 24 24" fill="#5f6368">
        <path d="M0 0h24v24H0V0z" fill="none" />
        <path d="M9.4 16.6L4.8 12l4.6-4.6L8 6l-6 6 6 6 1.4-1.4zm5.2 0l4.6-4.6-4.6-4.6L16 6l6 6-6 6-1.4-1.4z" />
    </symbol>
    <symbol id="data-object" enable-background="new 0 0 20 20" viewBox="0 0 20 20" fill="#5f6368">
        <g>
            <rect fill="none" height="20" width="20" x="0" />
        </g>
        <g>
            <g>
                <path
                    d="M4,6.25v1.5C4,8.16,3.66,8.5,3.25,8.5H2v3h1.25C3.66,11.5,4,11.84,4,12.25v1.5C4,14.99,5.01,16,6.25,16H8v-1.5H6.25 c-0.41,0-0.75-0.34-0.75-0.75v-1.5c0-1.16-0.88-2.11-2-2.24V9.99c1.12-0.12,2-1.08,2-2.24v-1.5c0-0.41,0.34-0.75,0.75-0.75H8V4 H6.25C5.01,4,4,5.01,4,6.25z" />
                <path
                    d="M16.75,8.5C16.34,8.5,16,8.16,16,7.75v-1.5C16,5.01,14.99,4,13.75,4H12v1.5h1.75c0.41,0,0.75,0.34,0.75,0.75v1.5 c0,1.16,0.88,2.11,2,2.24v0.03c-1.12,0.12-2,1.08-2,2.24v1.5c0,0.41-0.34,0.75-0.75,0.75H12V16h1.75c1.24,0,2.25-1.01,2.25-2.25 v-1.5c0-0.41,0.34-0.75,0.75-0.75H18v-3H16.75z" />
            </g>
        </g>
    </symbol>

    <symbol id="terminal" enable-background="new 0 0 20 20" viewBox="0 0 20 20" fill="#5f6368">
        <g>
            <rect fill="none" height="20" width="20" x="0" />
        </g>
        <g>
            <path
                d="M16.5,4h-13C2.67,4,2,4.67,2,5.5v9C2,15.33,2.67,16,3.5,16h13c0.83,0,1.5-0.67,1.5-1.5v-9C18,4.67,17.33,4,16.5,4z M3.5,14.5V7h13v7.5H3.5z M15,13.5h-5V12h5V13.5z M6.25,13.5l-1.06-1.06l1.69-1.69L5.19,9.06L6.25,8L9,10.75L6.25,13.5z" />
        </g>
    </symbol>

    <symbol id="css-small" viewBox="0 0 1000 1000" role="img" aria-labelledby="css-logo-title css-logo-description">
        <title id="css-logo-title">CSS Logo</title>
        <desc id="css-logo-description">A purple square with rounded corners and the letters CSS inside in white</desc>
        <path id="bg" fill="#639"
            d="M0 0H840A160 160 0 0 1 1000 160V840A160 160 0 0 1 840 1000H160A160 160 0 0 1 0 840V0Z" />
        <path transform="scale(1.3) translate(-200 -200)" id="fg" fill="#fff"
            d="m358.1,920c-64.23-.06-103.86-36.23-103.1-102.79,0,0,0-168.39,0-168.39,0-33.74,9.88-59.4,29.64-76.96,35.49-34.19,117.83-36.27,152.59.52,21.42,18.89,29.5,57.48,27.58,93.49h-73.72c.56-14.15-.19-35.58-8.51-43.65-10.81-14.63-39.36-12.91-46.91,2.32-4.64,8.26-6.96,20.49-6.96,36.67v146.18c0,30.65,10.65,46.15,31.96,46.49,9.96,0,17.53-3.62,22.68-10.85,7.19-8.58,8.31-27.58,7.73-41.32h73.72c5.04,70.07-36.32,119.16-106.71,118.29Zm234.04,0c-71.17.98-103.01-49.66-101.04-118.29h69.59c-1.93,29.92,8.35,57.17,32.99,55.27,10.99,0,18.73-3.44,23.2-10.33,8.5-12.59,10.09-48.95-2.06-63.02-8.49-13.55-39.03-25.51-55.16-33.57-23.03-11.02-39.61-24.1-49.75-39.26-22.87-33.64-20.75-107.48,11.34-137.4,31.18-36.92,112.61-38.62,143.82-.77,19.25,19.51,27.66,57.9,26.03,93.23h-67.02c.57-14.52-.8-37.95-6.44-46.49-3.95-7.23-11.43-10.85-22.42-10.85-19.59,0-29.38,11.71-29.38,35.12.21,24.86,9.9,35.06,32.48,45.45,29.24,11.36,66.42,30.76,79.9,54.24,40.2,71.54,12.62,180.82-86.09,176.65Zm224.76,0c-71.17.98-103.01-49.66-101.04-118.29h69.59c-1.93,29.92,8.35,57.17,32.99,55.27,10.99,0,18.73-3.44,23.2-10.33,8.5-12.59,10.09-48.95-2.06-63.02-8.49-13.55-39.03-25.51-55.16-33.57-23.03-11.02-39.61-24.1-49.75-39.26-22.87-33.64-20.75-107.48,11.34-137.4,31.18-36.92,112.61-38.62,143.82-.77,19.25,19.51,27.66,57.9,26.03,93.23h-67.02c.57-14.52-.8-37.95-6.44-46.49-3.95-7.23-11.43-10.85-22.42-10.85-19.59,0-29.38,11.71-29.38,35.12.21,24.86,9.9,35.06,32.48,45.45,29.24,11.36,66.42,30.76,79.9,54.24,40.2,71.54,12.62,180.82-86.09,176.65Z" />
</svg>

</svg>