<svg xmlns="http://www.w3.org/2000/svg" width="0" height="0" fill="none" style="visibility: hidden; position: absolute;" aria-hidden="true">
    <symbol id="11ty" viewBox="0 0 128 128">
        <path fill="#1F1F1F" d="M18 0h92v128H18z"/>
        <path d="M55.3 36.3h.4c1.1 0 1.5.9 1.5 2.3v41.8c0 1.8-.4 3-1.6 3l-4.8-.1c-1.2 0-1.6-1-1.6-3V45.5l-2.1.5c-1 0-1.5-.8-1.5-2.2v-3c0-1.2.4-2 1.4-2.2l8.3-2.2zm16 36.1l.1 3 .6 1.3.6.6.8.1h2.2c1 0 1.7.8 1.7 2v1.9c0 1.2-.6 2-1.8 2h-3.2l-2.3-.1c-.7-.2-1.4-.5-2.2-1a5.7 5.7 0 01-2-1.9c-.4-.8-.8-1.9-1-3.2-.4-1.4-.5-3-.5-4.8v-16h-1.5c-1.1 0-1.6-1-1.6-2.4v-1.7c0-1.4.5-2.3 1.6-2.3h1.5v-.1l.6-12.3c0-1.5.5-2.5 1.6-2.5h3.1c1.2 0 1.6 1 1.6 2.5v12.3h3.6c1.1 0 1.6 1 1.6 2.4V54c0 1.4-.5 2.3-1.6 2.3h-3.6v16.2zm9.4 15.7c0-2 .3-3.2 1.5-3.2.2 0 .4 0 1.4.4l1.1.3.2-.1.4-.7c.3-.6.4-1.6.4-3l-.6-3.3L79 52.7v-.9c0-1.2.3-2 1.2-2H84c.5 0 1 .3 1.3.6.3.4.5.9.6 1.6l3.4 18 2.6-17.8c.1-.8.3-1.3.6-1.7.3-.4.8-.6 1.3-.6h2.6c1 0 1.4.8 1.4 2l-.1.8L92 82.2c-.5 2.5-1 4.4-1.5 5.7a6.6 6.6 0 01-2 3c-.9.6-1.9.9-3.1.9h-.3c-2 0-3.3-.6-4.1-1.7-.3-.4-.4-1-.4-2zM31.3 38.8l8.2-2.1h.5c1 0 1.4.8 1.4 2.2v41.9c0 1.8-.4 2.9-1.6 2.9h-4.7c-1.2 0-1.6-1.1-1.6-3v-35l-2 .6c-1.2 0-1.6-.9-1.6-2.2v-3c0-1.2.4-2 1.4-2.3z" fill="#FFF"/>
    </symbol>
    <symbol id="codepen" viewBox="0 0 128 128" fill="none">
        <path d="M125.571 39.926l-58.5-39c-1.997-1.23-4.128-1.24-6.142 0l-58.5 39C.929 40.926 0 42.712 0 44.497v39c0 1.786.929 3.572 2.429 4.571l58.5 39.006c1.996 1.229 4.128 1.24 6.142 0l58.5-39.006c1.5-.999 2.429-2.785 2.429-4.57v-39c0-1.786-.929-3.572-2.429-4.572zm-56.07-24.144l43.07 28.715-19.214 12.858L69.5 41.425V15.784zm-11.001 0v25.644L34.642 57.354 15.428 44.498 58.5 15.782zm-47.5 39l13.786 9.215L11 73.212v-18.43zm47.5 57.43L15.428 83.497 34.642 70.64 58.5 86.569v25.643zM64 76.997l-19.428-13 19.428-13 19.428 13-19.428 13zm5.5 35.215V86.569L93.357 70.64l19.214 12.857-43.07 28.715zm47.5-39l-13.786-9.215L117 54.783v18.429z" fill="#000"/>
    </symbol>
    <symbol id="css" viewBox="0 0 1000 1000" role="img" aria-labelledby="css-logo-title css-logo-description">
        <title id="css-logo-titl">CSS Logo</title>
        <desc id="css-logo-description">A purple square with rounded corners and the letters CSS inside in white</desc>
        <path id="bg" fill="#639" d="M0 0H840A160 160 0 0 1 1000 160V840A160 160 0 0 1 840 1000H160A160 160 0 0 1 0 840V0Z"/>
        <path transform="scale(1.3) translate(-200 -200)" id="fg" fill="#fff" d="m358.1,920c-64.23-.06-103.86-36.23-103.1-102.79,0,0,0-168.39,0-168.39,0-33.74,9.88-59.4,29.64-76.96,35.49-34.19,117.83-36.27,152.59.52,21.42,18.89,29.5,57.48,27.58,93.49h-73.72c.56-14.15-.19-35.58-8.51-43.65-10.81-14.63-39.36-12.91-46.91,2.32-4.64,8.26-6.96,20.49-6.96,36.67v146.18c0,30.65,10.65,46.15,31.96,46.49,9.96,0,17.53-3.62,22.68-10.85,7.19-8.58,8.31-27.58,7.73-41.32h73.72c5.04,70.07-36.32,119.16-106.71,118.29Zm234.04,0c-71.17.98-103.01-49.66-101.04-118.29h69.59c-1.93,29.92,8.35,57.17,32.99,55.27,10.99,0,18.73-3.44,23.2-10.33,8.5-12.59,10.09-48.95-2.06-63.02-8.49-13.55-39.03-25.51-55.16-33.57-23.03-11.02-39.61-24.1-49.75-39.26-22.87-33.64-20.75-107.48,11.34-137.4,31.18-36.92,112.61-38.62,143.82-.77,19.25,19.51,27.66,57.9,26.03,93.23h-67.02c.57-14.52-.8-37.95-6.44-46.49-3.95-7.23-11.43-10.85-22.42-10.85-19.59,0-29.38,11.71-29.38,35.12.21,24.86,9.9,35.06,32.48,45.45,29.24,11.36,66.42,30.76,79.9,54.24,40.2,71.54,12.62,180.82-86.09,176.65Zm224.76,0c-71.17.98-103.01-49.66-101.04-118.29h69.59c-1.93,29.92,8.35,57.17,32.99,55.27,10.99,0,18.73-3.44,23.2-10.33,8.5-12.59,10.09-48.95-2.06-63.02-8.49-13.55-39.03-25.51-55.16-33.57-23.03-11.02-39.61-24.1-49.75-39.26-22.87-33.64-20.75-107.48,11.34-137.4,31.18-36.92,112.61-38.62,143.82-.77,19.25,19.51,27.66,57.9,26.03,93.23h-67.02c.57-14.52-.8-37.95-6.44-46.49-3.95-7.23-11.43-10.85-22.42-10.85-19.59,0-29.38,11.71-29.38,35.12.21,24.86,9.9,35.06,32.48,45.45,29.24,11.36,66.42,30.76,79.9,54.24,40.2,71.54,12.62,180.82-86.09,176.65Z"/>
    </symbol>
    <symbol id="css3" viewBox="0 0 128 128">
        <path fill="#1572B6" d="M18.814 114.123L8.76 1.352h110.48l-10.064 112.754-45.243 12.543-45.119-12.526z"/>
        <path fill="#33A9DC" d="M64.001 117.062l36.559-10.136 8.601-96.354h-45.16v106.49z"/>
        <path fill="#fff" d="M64.001 51.429h18.302l1.264-14.163H64.001V23.435h34.682l-.332 3.711-3.4 38.114h-30.95V51.429z"/>
        <path fill="#EBEBEB" d="M64.083 87.349l-.061.018-15.403-4.159-.985-11.031H33.752l1.937 21.717 28.331 7.863.063-.018v-14.39z"/>
        <path fill="#fff" d="M81.127 64.675l-1.666 18.522-15.426 4.164v14.39l28.354-7.858.208-2.337 2.406-26.881H81.127z"/>
        <path fill="#EBEBEB" d="M64.048 23.435v13.831H30.64l-.277-3.108-.63-7.012-.331-3.711h34.646zm-.047 27.996v13.831H48.792l-.277-3.108-.631-7.012-.33-3.711h16.447z"/>
    </symbol>
    <symbol id="git" viewBox="0 0 128 128">
        <path fill="#F34F29" d="M124.737 58.378L69.621 3.264c-3.172-3.174-8.32-3.174-11.497 0L46.68 14.71l14.518 14.518c3.375-1.139 7.243-.375 9.932 2.314 2.703 2.706 3.461 6.607 2.294 9.993l13.992 13.993c3.385-1.167 7.292-.413 9.994 2.295 3.78 3.777 3.78 9.9 0 13.679a9.673 9.673 0 01-13.683 0 9.677 9.677 0 01-2.105-10.521L68.574 47.933l-.002 34.341a9.708 9.708 0 012.559 1.828c3.778 3.777 3.778 9.898 0 13.683-3.779 3.777-9.904 3.777-13.679 0-3.778-3.784-3.778-9.905 0-13.683a9.65 9.65 0 013.167-2.11V47.333a9.581 9.581 0 01-3.167-2.111c-2.862-2.86-3.551-7.06-2.083-10.576L41.056 20.333 3.264 58.123a8.133 8.133 0 000 11.5l55.117 55.114c3.174 3.174 8.32 3.174 11.499 0l54.858-54.858a8.135 8.135 0 00-.001-11.501z"/>
    </symbol>
    <symbol id="html5" viewBox="0 0 128 128">
        <path fill="#E44D26" d="M19.037 113.876L9.032 1.661h109.936l-10.016 112.198-45.019 12.48z"/>
        <path fill="#F16529" d="M64 116.8l36.378-10.086 8.559-95.878H64z"/>
        <path fill="#EBEBEB" d="M64 52.455H45.788L44.53 38.361H64V24.599H29.489l.33 3.692 3.382 37.927H64zm0 35.743l-.061.017-15.327-4.14-.979-10.975H33.816l1.928 21.609 28.193 7.826.063-.017z"/>
        <path fill="#fff" d="M63.952 52.455v13.763h16.947l-1.597 17.849-15.35 4.143v14.319l28.215-7.82.207-2.325 3.234-36.233.335-3.696h-3.708zm0-27.856v13.762h33.244l.276-3.092.628-6.978.329-3.692z"/>
    </symbol>
    <symbol id="javascript" viewBox="0 0 128 128">
        <path fill="#F0DB4F" d="M1.408 1.408h125.184v125.185H1.408z"/>
        <path fill="#323330" d="M116.347 96.736c-.917-5.711-4.641-10.508-15.672-14.981-3.832-1.761-8.104-3.022-9.377-5.926-.452-1.69-.512-2.642-.226-3.665.821-3.32 4.784-4.355 7.925-3.403 2.023.678 3.938 2.237 5.093 4.724 5.402-3.498 5.391-3.475 9.163-5.879-1.381-2.141-2.118-3.129-3.022-4.045-3.249-3.629-7.676-5.498-14.756-5.355l-3.688.477c-3.534.893-6.902 2.748-8.877 5.235-5.926 6.724-4.236 18.492 2.975 23.335 7.104 5.332 17.54 6.545 18.873 11.531 1.297 6.104-4.486 8.08-10.234 7.378-4.236-.881-6.592-3.034-9.139-6.949-4.688 2.713-4.688 2.713-9.508 5.485 1.143 2.499 2.344 3.63 4.26 5.795 9.068 9.198 31.76 8.746 35.83-5.176.165-.478 1.261-3.666.38-8.581zM69.462 58.943H57.753l-.048 30.272c0 6.438.333 12.34-.714 14.149-1.713 3.558-6.152 3.117-8.175 2.427-2.059-1.012-3.106-2.451-4.319-4.485-.333-.584-.583-1.036-.667-1.071l-9.52 5.83c1.583 3.249 3.915 6.069 6.902 7.901 4.462 2.678 10.459 3.499 16.731 2.059 4.082-1.189 7.604-3.652 9.448-7.401 2.666-4.915 2.094-10.864 2.07-17.444.06-10.735.001-21.468.001-32.237z"/>
    </symbol>
    <symbol id="nunjucks" viewBox="0 0 32 32">
        <path d="M2,2H30V30H2V2M5.609,5.434q0,10.126,0,20.253H9.088q0-4.407,0-8.815,1.268,4.408,2.536,8.815,1.737,0,3.474,0,0-10.126,0-20.253c-1.168,0-2.336,0-3.5,0,0,2.759,0,5.518,0,8.278Q10.332,9.572,9.059,5.434q-1.725,0-3.45,0m17.255,4.8q0,5.97,0,11.94H20.336c0-1.225,0-2.45,0-3.675-1.17.274-2.342.542-3.513.814q0,1.844,0,3.688a4.19,4.19,0,0,0,.077,1.1,2.187,2.187,0,0,0,.863,1.219,2.077,2.077,0,0,0,1.193.371q2.381,0,4.763,0a4.058,4.058,0,0,0,1.08-.08,2.216,2.216,0,0,0,1.247-.931,2.136,2.136,0,0,0,.336-1.209q0-6.617,0-13.234Z" style="fill:#1c4913"/>
        <path d="M5.609,5.434q1.725,0,3.45,0,1.271,4.139,2.538,8.279c-.007-2.759,0-5.518,0-8.278,1.168,0,2.336,0,3.5,0q0,10.126,0,20.253-1.737,0-3.474,0-1.27-4.407-2.536-8.815,0,4.408,0,8.815H5.609Q5.609,15.561,5.609,5.434Z" style="fill:#fefffc"/>
        <path d="M22.865,10.233h3.514q0,6.617,0,13.234a2.136,2.136,0,0,1-.336,1.209,2.216,2.216,0,0,1-1.247.931,4.058,4.058,0,0,1-1.08.08q-2.382,0-4.763,0a2.077,2.077,0,0,1-1.193-.371A2.187,2.187,0,0,1,16.9,24.1a4.19,4.19,0,0,1-.077-1.1q0-1.844,0-3.688c1.171-.273,2.343-.541,3.513-.814,0,1.225,0,2.45,0,3.675h2.529Q22.865,16.2,22.865,10.233Z" style="fill:#fefffc"/>
    </symbol>
    <symbol id="sass" viewBox="0 0 128 128">
        <path fill-rule="evenodd" clip-rule="evenodd" fill="#CB6699" d="M1.219 56.156c0 .703.207 1.167.323 1.618.756 2.933 2.381 5.45 4.309 7.746 2.746 3.272 6.109 5.906 9.554 8.383 2.988 2.148 6.037 4.248 9.037 6.38.515.366 1.002.787 1.561 1.236-.481.26-.881.489-1.297.7-3.959 2.008-7.768 4.259-11.279 6.986-2.116 1.644-4.162 3.391-5.607 5.674-2.325 3.672-3.148 7.584-1.415 11.761.506 1.22 1.278 2.274 2.367 3.053.353.252.749.502 1.162.6 1.058.249 2.136.412 3.207.609l3.033-.002c3.354-.299 6.407-1.448 9.166-3.352 4.312-2.976 7.217-6.966 8.466-12.087.908-3.722.945-7.448-.125-11.153a11.696 11.696 0 00-.354-1.014c-.13-.333-.283-.657-.463-1.072l6.876-3.954.103.088c-.125.409-.258.817-.371 1.23-.817 2.984-1.36 6.02-1.165 9.117.208 3.3 1.129 6.389 3.061 9.146 1.562 2.23 5.284 2.313 6.944.075.589-.795 1.16-1.626 1.589-2.513 1.121-2.315 2.159-4.671 3.23-7.011l.187-.428c-.077 1.108-.167 2.081-.208 3.055-.064 1.521.025 3.033.545 4.48.445 1.238 1.202 2.163 2.62 2.326.97.111 1.743-.333 2.456-.896a10.384 10.384 0 002.691-3.199c1.901-3.491 3.853-6.961 5.576-10.54 1.864-3.871 3.494-7.855 5.225-11.792l.286-.698c.409 1.607.694 3.181 1.219 4.671.61 1.729 1.365 3.417 2.187 5.058.389.775.344 1.278-.195 1.928-2.256 2.72-4.473 5.473-6.692 8.223-.491.607-.98 1.225-1.389 1.888a3.701 3.701 0 00-.48 1.364 1.737 1.737 0 001.383 1.971 9.661 9.661 0 002.708.193c3.097-.228 5.909-1.315 8.395-3.157 3.221-2.386 4.255-5.642 3.475-9.501-.211-1.047-.584-2.065-.947-3.074-.163-.455-.174-.774.123-1.198 2.575-3.677 4.775-7.578 6.821-11.569.081-.157.164-.314.306-.482.663 3.45 1.661 6.775 3.449 9.792-.912.879-1.815 1.676-2.632 2.554-1.799 1.934-3.359 4.034-4.173 6.595-.35 1.104-.619 2.226-.463 3.405.242 1.831 1.742 3.021 3.543 2.604 3.854-.892 7.181-2.708 9.612-5.925 1.636-2.166 1.785-4.582 1.1-7.113-.188-.688-.411-1.365-.651-2.154.951-.295 1.878-.649 2.837-.868 4.979-1.136 9.904-.938 14.702.86 2.801 1.05 5.064 2.807 6.406 5.571 1.639 3.379.733 6.585-2.452 8.721-.297.199-.637.356-.883.605a.869.869 0 00-.205.67c.021.123.346.277.533.275 1.047-.008 1.896-.557 2.711-1.121 2.042-1.413 3.532-3.314 3.853-5.817l.063-.188-.077-1.63c-.031-.094.023-.187.016-.258-.434-3.645-2.381-6.472-5.213-8.688-3.28-2.565-7.153-3.621-11.249-3.788a25.401 25.401 0 00-9.765 1.503c-.897.325-1.786.71-2.688 1.073-.121-.219-.251-.429-.358-.646-.926-1.896-2.048-3.708-2.296-5.882-.176-1.544-.392-3.086-.025-4.613.353-1.469.813-2.913 1.246-4.362.223-.746.066-1.164-.646-1.5a2.854 2.854 0 00-.786-.258c-1.75-.254-3.476-.109-5.171.384-.6.175-1.036.511-1.169 1.175-.076.381-.231.746-.339 1.122-.443 1.563-.757 3.156-1.473 4.645-1.794 3.735-3.842 7.329-5.938 10.897-.227.385-.466.763-.752 1.23-.736-1.54-1.521-2.922-1.759-4.542-.269-1.832-.481-3.661-.025-5.479.339-1.356.782-2.687 1.19-4.025.193-.636.104-.97-.472-1.305-.291-.169-.62-.319-.948-.368a11.643 11.643 0 00-5.354.438c-.543.176-.828.527-.994 1.087-.488 1.652-.904 3.344-1.589 4.915-2.774 6.36-5.628 12.687-8.479 19.013-.595 1.321-1.292 2.596-1.963 3.882-.17.326-.418.613-.63.919-.17-.201-.236-.339-.235-.477.005-.813-.092-1.65.063-2.436a172.189 172.189 0 011.578-7.099c.47-1.946 1.017-3.874 1.538-5.807.175-.647.178-1.252-.287-1.796-.781-.911-2.413-1.111-3.381-.409l-.428.242.083-.69c.204-1.479.245-2.953-.161-4.41-.506-1.816-1.802-2.861-3.686-2.803-.878.027-1.8.177-2.613.497-3.419 1.34-6.048 3.713-8.286 6.568a2.592 2.592 0 01-.757.654c-2.893 1.604-5.795 3.188-8.696 4.778l-3.229 1.769c-.866-.826-1.653-1.683-2.546-2.41-2.727-2.224-5.498-4.393-8.244-6.592-2.434-1.949-4.792-3.979-6.596-6.56-1.342-1.92-2.207-4.021-2.29-6.395-.105-3.025.753-5.789 2.293-8.362 1.97-3.292 4.657-5.934 7.611-8.327 3.125-2.53 6.505-4.678 10.008-6.639 4.901-2.743 9.942-5.171 15.347-6.774 5.542-1.644 11.165-2.585 16.965-1.929 2.28.258 4.494.78 6.527 1.895 1.557.853 2.834 1.97 3.428 3.716.586 1.718.568 3.459.162 5.204-.825 3.534-2.76 6.447-5.195 9.05-3.994 4.267-8.866 7.172-14.351 9.091a39.478 39.478 0 01-9.765 2.083c-2.729.229-5.401-.013-7.985-.962-1.711-.629-3.201-1.591-4.399-2.987-.214-.25-.488-.521-.887-.287-.391.23-.46.602-.329.979.219.626.421 1.278.762 1.838.857 1.405 2.107 2.424 3.483 3.298 2.643 1.681 5.597 2.246 8.66 2.377 4.648.201 9.183-.493 13.654-1.74 6.383-1.78 11.933-4.924 16.384-9.884 3.706-4.13 6.353-8.791 6.92-14.419.277-2.747-.018-5.438-1.304-7.944-1.395-2.715-3.613-4.734-6.265-6.125C68.756 18.179 64.588 17 60.286 17h-4.31c-5.21 0-10.247 1.493-15.143 3.274-3.706 1.349-7.34 2.941-10.868 4.703-7.683 3.839-14.838 8.468-20.715 14.833-2.928 3.171-5.407 6.67-6.833 10.79a40.494 40.494 0 00-1.111 3.746m27.839 36.013c-.333 4.459-2.354 8.074-5.657 11.002-1.858 1.646-3.989 2.818-6.471 3.23-.9.149-1.821.185-2.694-.188-1.245-.532-1.524-1.637-1.548-2.814-.037-1.876.62-3.572 1.521-5.186 1.176-2.104 2.9-3.708 4.741-5.206 2.9-2.361 6.046-4.359 9.268-6.245l.243-.1c.498 1.84.735 3.657.597 5.507zM54.303 70.98c-.235 1.424-.529 2.849-.945 4.229-1.438 4.777-3.285 9.406-5.282 13.973-.369.845-.906 1.616-1.373 2.417a1.689 1.689 0 01-.283.334c-.578.571-1.126.541-1.418-.206-.34-.868-.549-1.797-.729-2.716-.121-.617-.092-1.265-.13-1.897.039-4.494 1.41-8.578 3.736-12.38.959-1.568 2.003-3.062 3.598-4.054a6.27 6.27 0 011.595-.706c.85-.239 1.372.154 1.231 1.006zm17.164 21.868l6.169-7.203c.257 2.675-4.29 8.015-6.169 7.203zm19.703-4.847c-.436.25-.911.43-1.358.661-.409.212-.544-.002-.556-.354a2.385 2.385 0 01.093-.721c.833-2.938 2.366-5.446 4.647-7.486l.16-.082c1.085 3.035-.169 6.368-2.986 7.982z"/>
    </symbol>
    <symbol id="code" viewBox="0 0 24 24" fill="#5f6368">
        <path d="M0 0h24v24H0V0z" fill="none" />
        <path d="M9.4 16.6L4.8 12l4.6-4.6L8 6l-6 6 6 6 1.4-1.4zm5.2 0l4.6-4.6-4.6-4.6L16 6l6 6-6 6-1.4-1.4z" />
    </symbol>
</svg>